<svg xmlns="http://www.w3.org/2000/svg" overflow="hidden" viewBox="0 0 2436 2443"><defs><clipPath id="a"><path d="M983 32h2436v2443H983z"/></clipPath></defs><g fill-rule="evenodd" clip-path="url(#a)" transform="translate(-983 -32)"><path fill="#f28f5f" d="M2202 2105.5a65.3 65.3.0 0 1 65-65.5c35.9.0 65 29.3 65 65.5a65.3 65.3.0 0 1-65 65.5c-35.9.0-65-29.3-65-65.5z"/><path fill="#d27a47" d="M1971 2372c0-35.9 29.3-65 65.5-65a65.3 65.3.0 0 1 65.5 65c0 35.9-29.3 65-65.5 65a65.3 65.3.0 0 1-65.5-65z"/><path fill="#f0a675" d="M2520 2305a65 65 0 1 1 130 0 65 65 0 0 1-130 0z"/><path fill="#d47844" d="M2563 1952.5a65.3 65.3.0 0 1 65-65.5c35.9.0 65 29.3 65 65.5a65.3 65.3.0 0 1-65 65.5c-35.9.0-65-29.3-65-65.5z"/><path fill="#efa473" d="M1712 2079.5a65.5 65.5.0 1 1 131 0 65.5 65.5.0 0 1-131 0z"/><path fill="#bf7357" d="M1903 1839a65 65 0 1 1 130 0 65 65 0 0 1-130 0z"/><path fill="#0cac75" d="M1495 1717c0-35.9 29.3-65 65.5-65a65.3 65.3.0 0 1 65.5 65c0 35.9-29.3 65-65.5 65a65.3 65.3.0 0 1-65.5-65z"/><path fill="#d37843" d="M2222 1636.5a65.5 65.5.0 1 1 131 0 65.5 65.5.0 0 1-131 0z"/><path fill="#09ab74" d="M2516 1619c0-35.9 29.3-65 65.5-65a65.3 65.3.0 0 1 65.5 65c0 35.9-29.3 65-65.5 65a65.3 65.3.0 0 1-65.5-65z"/><path fill="#f49465" d="M2370 899c0-35.9 29.3-65 65.5-65a65.3 65.3.0 0 1 65.5 65c0 35.9-29.3 65-65.5 65a65.3 65.3.0 0 1-65.5-65z"/><path fill="#0cac75" d="M2662 1160c0-35.9 29.3-65 65.5-65a65.3 65.3.0 0 1 65.5 65c0 35.9-29.3 65-65.5 65a65.3 65.3.0 0 1-65.5-65z"/><path fill="#d37944" d="M1504 1315c0-35.9 29.3-65 65.5-65a65.3 65.3.0 0 1 65.5 65c0 35.9-29.3 65-65.5 65a65.3 65.3.0 0 1-65.5-65z"/><path fill="#f29363" d="M1806 1426.5a65.5 65.5.0 1 1 131 0 65.5 65.5.0 0 1-131 0z"/><path fill="#09aa72" d="M1951 698a65 65 0 1 1 130 0 65 65 0 0 1-130 0z"/><path fill="#d1743f" d="M2411 515.5a65.5 65.5.0 1 1 131 0 65.5 65.5.0 0 1-131 0z"/><path fill="#09aa72" d="M2728 735.5a65.3 65.3.0 0 1 65-65.5c35.9.0 65 29.3 65 65.5a65.3 65.3.0 0 1-65 65.5c-35.9.0-65-29.3-65-65.5z"/><path fill="#f59463" d="M2061 330a65 65 0 1 1 130 0 65 65 0 0 1-130 0z"/><path fill="#d17643" d="M1635 419.5a65.3 65.3.0 0 1 65-65.5c35.9.0 65 29.3 65 65.5a65.3 65.3.0 0 1-65 65.5c-35.9.0-65-29.3-65-65.5z"/><path fill="#f1a876" d="M1812 154.5a65.3 65.3.0 0 1 65-65.5c35.9.0 65 29.3 65 65.5a65.3 65.3.0 0 1-65 65.5c-35.9.0-65-29.3-65-65.5z"/><path fill="#cf733f" d="M2358 135.5a65.5 65.5.0 1 1 131 0 65.5 65.5.0 0 1-131 0z"/><path fill="#0fab73" d="M1440 833.5a65.5 65.5.0 1 1 131 0 65.5 65.5.0 0 1-131 0z"/><path fill="#f49668" d="M1310 546.5a65.3 65.3.0 0 1 65-65.5c35.9.0 65 29.3 65 65.5a65.3 65.3.0 0 1-65 65.5c-35.9.0-65-29.3-65-65.5z"/><path fill="#d27947" d="M1059 840.5a65.3 65.3.0 0 1 65-65.5c35.9.0 65 29.3 65 65.5a65.3 65.3.0 0 1-65 65.5c-35.9.0-65-29.3-65-65.5z"/><path fill="#f1a673" d="M1255 1153.5a65.3 65.3.0 0 1 65-65.5c35.9.0 65 29.3 65 65.5a65.3 65.3.0 0 1-65 65.5c-35.9.0-65-29.3-65-65.5z"/><path fill="#f59568" d="M1184 1507.5a65.5 65.5.0 1 1 131 0 65.5 65.5.0 0 1-131 0z"/><path fill="#d57d4c" d="M988 1323.5a65.5 65.5.0 1 1 131 0 65.5 65.5.0 0 1-131 0z"/><path fill="#d47c4c" d="M1256 1993.5a65.5 65.5.0 1 1 131 0 65.5 65.5.0 0 1-131 0z"/><path fill="#f49465" d="M2924 1743a65 65 0 1 1 130 0 65 65 0 0 1-130 0z"/><path fill="#f0a575" d="M2901 2036.5a65.5 65.5.0 1 1 131 0 65.5 65.5.0 0 1-131 0z"/><path fill="#909851" d="M2865 1421.5a65.5 65.5.0 1 1 131 0 65.5 65.5.0 0 1-131 0z"/><path fill="#d77c4a" d="M3205 1447.5a65.5 65.5.0 1 1 131 0 65.5 65.5.0 0 1-131 0z"/><path fill="#f4a877" d="M3283 1103.5a65.3 65.3.0 0 1 65-65.5c35.9.0 65 29.3 65 65.5a65.3 65.3.0 0 1-65 65.5c-35.9.0-65-29.3-65-65.5z"/><path fill="#d47844" d="M2991 960.5a65.3 65.3.0 0 1 65-65.5c35.9.0 65 29.3 65 65.5a65.3 65.3.0 0 1-65 65.5c-35.9.0-65-29.3-65-65.5z"/><path fill="#f69565" d="M3108 632.5a65.3 65.3.0 0 1 65-65.5c35.9.0 65 29.3 65 65.5a65.3 65.3.0 0 1-65 65.5c-35.9.0-65-29.3-65-65.5z"/><path fill="#f2a774" d="M2772 383.5a65.5 65.5.0 1 1 131 0 65.5 65.5.0 0 1-131 0z"/><path fill="#d57f50" d="M1102 1798a54 54 0 1 1 108 0 54 54 0 0 1-108 0z"/><path fill="#be7457" d="M1565 1060a54 54 0 1 1 108 0 54 54 0 0 1-108 0z"/><path fill="#8a9450" d="M2308 1151.5a53.5 53.5.0 1 1 107 0 53.5 53.5.0 0 1-107 0z"/><path fill="#d37946" d="M2010 1596a54 54 0 1 1 108 0 54 54 0 0 1-108 0z"/><path fill="#d57a48" d="M1767 1546a54 54 0 1 1 108 0 54 54 0 0 1-108 0z"/><path fill="#d17a4a" d="M1712 2329.5a53.8 53.8.0 0 1 54-53.5c29.8.0 54 24 54 53.5a53.8 53.8.0 0 1-54 53.5c-29.8.0-54-24-54-53.5z"/><path fill="#f49366" d="M2523 2073a54 54 0 1 1 108 0 54 54 0 0 1-108 0z"/><path fill="#d37b49" d="M2716 1665c0-29.8 24-54 53.5-54a53.8 53.8.0 0 1 53.5 54c0 29.8-24 54-53.5 54a53.8 53.8.0 0 1-53.5-54z"/><path fill="#d37a48" d="M2789 1234a54 54 0 1 1 108 0 54 54 0 0 1-108 0z"/><path fill="#8c9753" d="M2450 1417.5a53.8 53.8.0 0 1 54-53.5c29.8.0 54 24 54 53.5a53.8 53.8.0 0 1-54 53.5c-29.8.0-54-24-54-53.5z"/><path fill="#8d9653" d="M2358 15e2a54 54 0 1 1 108 0 54 54 0 0 1-108 0z"/><path fill="#bc7155" d="M2028 1046a54 54 0 1 1 108 0 54 54 0 0 1-108 0z"/><path fill="#899352" d="M1840 771a54 54 0 1 1 108 0 54 54 0 0 1-108 0z"/><path fill="#d17644" d="M1936 368a54 54 0 1 1 108 0 54 54 0 0 1-108 0z"/><path fill="#cc7644" d="M1689 546.5a53.8 53.8.0 0 1 54-53.5c29.8.0 54 24 54 53.5a53.8 53.8.0 0 1-54 53.5c-29.8.0-54-24-54-53.5z"/><path fill="#ce7946" d="M1377 675a54 54 0 1 1 108 0 54 54 0 0 1-108 0z"/><path fill="#d57c4b" d="M1079 1422a54 54 0 1 1 108 0 54 54 0 0 1-108 0z"/><path fill="#d47a46" d="M2376 1266a54 54 0 1 1 108 0 54 54 0 0 1-108 0z"/><path fill="#d47845" d="M2074 2050a54 54 0 1 1 108 0 54 54 0 0 1-108 0z"/><path fill="#d57946" d="M2390 2279a54 54 0 1 1 108 0 54 54 0 0 1-108 0z"/><path fill="#d47a48" d="M1826 1940a54 54 0 1 1 108 0 54 54 0 0 1-108 0z"/><path fill="#ce7644" d="M2693 597c0-29.8 24-54 53.5-54a53.8 53.8.0 0 1 53.5 54c0 29.8-24 54-53.5 54a53.8 53.8.0 0 1-53.5-54z"/><path fill="#d37946" d="M2885 748a54 54 0 1 1 108 0 54 54 0 0 1-108 0z"/><path fill="#d47a47" d="M3133 954.5a53.5 53.5.0 1 1 107 0 53.5 53.5.0 0 1-107 0z"/><path fill="#be775b" d="M1283 1868a46 46 0 1 1 92 0 46 46 0 0 1-92 0z"/><path fill="#f39467" d="M1231 1767c0-25.4 20.4-46 45.5-46a45.7 45.7.0 0 1 45.5 46c0 25.4-20.4 46-45.5 46a45.7 45.7.0 0 1-45.5-46z"/><path fill="#c0785d" d="M1336 1721a46 46 0 1 1 92 0 46 46 0 0 1-92 0z"/><path fill="#de9e7e" d="M14e2 1641a46 46 0 1 1 92 0 46 46 0 0 1-92 0z"/><path fill="#d57e4d" d="M1293 1615.5a45.5 45.5.0 1 1 91 0 45.5 45.5.0 0 1-91 0z"/><path fill="#f1aa77" d="M1185 1638.5a45.5 45.5.0 1 1 91 0 45.5 45.5.0 0 1-91 0z"/><path fill="#d67f4f" d="M1089 1579c0-25.4 20.4-46 45.5-46a45.7 45.7.0 0 1 45.5 46c0 25.4-20.4 46-45.5 46a45.7 45.7.0 0 1-45.5-46z"/><path fill="#f0aa7b" d="M1004 1503.5a45.5 45.5.0 1 1 91 0 45.5 45.5.0 0 1-91 0z"/><path fill="#f39568" d="M1412 1471c0-25.4 20.4-46 45.5-46a45.7 45.7.0 0 1 45.5 46c0 25.4-20.4 46-45.5 46a45.7 45.7.0 0 1-45.5-46z"/><path fill="#19aa74" d="M1735 1345c0-25.4 20.4-46 45.5-46a45.7 45.7.0 0 1 45.5 46c0 25.4-20.4 46-45.5 46a45.7 45.7.0 0 1-45.5-46z"/><path fill="#919854" d="M1515 1856c0-25.4 20.4-46 45.5-46a45.7 45.7.0 0 1 45.5 46c0 25.4-20.4 46-45.5 46a45.7 45.7.0 0 1-45.5-46z"/><path fill="#be765c" d="M1758 1705c0-25.4 20.4-46 45.5-46a45.7 45.7.0 0 1 45.5 46c0 25.4-20.4 46-45.5 46a45.7 45.7.0 0 1-45.5-46z"/><path fill="#f0a572" d="M1150 1260.5a45.7 45.7.0 0 1 46-45.5c25.4.0 46 20.4 46 45.5a45.7 45.7.0 0 1-46 45.5c-25.4.0-46-20.4-46-45.5z"/><path fill="#f5986c" d="M1056 1194a46 46 0 1 1 92 0 46 46 0 0 1-92 0z"/><path fill="#f1ab7b" d="M1011 1070c0-25.4 20.4-46 45.5-46a45.7 45.7.0 0 1 45.5 46c0 25.4-20.4 46-45.5 46a45.7 45.7.0 0 1-45.5-46z"/><path fill="#f39668" d="M1260 1024.5a45.7 45.7.0 0 1 46-45.5c25.4.0 46 20.4 46 45.5a45.7 45.7.0 0 1-46 45.5c-25.4.0-46-20.4-46-45.5z"/><path fill="#f29362" d="M1341 1324.5a45.5 45.5.0 1 1 91 0 45.5 45.5.0 0 1-91 0z"/><path fill="#d37b4a" d="M1267 1395.5a45.7 45.7.0 0 1 46-45.5c25.4.0 46 20.4 46 45.5a45.7 45.7.0 0 1-46 45.5c-25.4.0-46-20.4-46-45.5z"/><path fill="#1aab76" d="M1577 1478c0-25.4 20.4-46 45.5-46a45.7 45.7.0 0 1 45.5 46c0 25.4-20.4 46-45.5 46a45.7 45.7.0 0 1-45.5-46z"/><path fill="#8bb979" d="M1645 1405a46 46 0 1 1 92 0 46 46 0 0 1-92 0z"/><path fill="#89924f" d="M1762 1178a46 46 0 1 1 92 0 46 46 0 0 1-92 0z"/><path fill="#d07641" d="M1687 1091c0-25.4 20.4-46 45.5-46a45.7 45.7.0 0 1 45.5 46c0 25.4-20.4 46-45.5 46a45.7 45.7.0 0 1-45.5-46z"/><path fill="#de9c7c" d="M1936 1171a46 46 0 1 1 92 0 46 46 0 0 1-92 0z"/><path fill="#d07845" d="M1966 1347.5a45.7 45.7.0 0 1 46-45.5c25.4.0 46 20.4 46 45.5a45.7 45.7.0 0 1-46 45.5c-25.4.0-46-20.4-46-45.5z"/><path fill="#f19363" d="M2079 1265c0-25.4 20.4-46 45.5-46a45.7 45.7.0 0 1 45.5 46c0 25.4-20.4 46-45.5 46a45.7 45.7.0 0 1-45.5-46z"/><path fill="#c5bb70" d="M22e2 1515a46 46 0 1 1 92 0 46 46 0 0 1-92 0z"/><path fill="#a6ad6f" d="M2207 1409.5a45.7 45.7.0 0 1 46-45.5c25.4.0 46 20.4 46 45.5a45.7 45.7.0 0 1-46 45.5c-25.4.0-46-20.4-46-45.5z"/><path fill="#8c9552" d="M2051 1412a46 46 0 1 1 92 0 46 46 0 0 1-92 0z"/><path fill="#0aae77" d="M2592 1336a46 46 0 1 1 92 0 46 46 0 0 1-92 0z"/><path fill="#0fac77" d="M2640 1444a46 46 0 1 1 92 0 46 46 0 0 1-92 0z"/><path fill="#0fab77" d="M2551 1503.5a45.5 45.5.0 1 1 91 0 45.5 45.5.0 0 1-91 0z"/><path fill="#acb277" d="M2748 1499c0-25.4 20.4-46 45.5-46a45.7 45.7.0 0 1 45.5 46c0 25.4-20.4 46-45.5 46a45.7 45.7.0 0 1-45.5-46z"/><path fill="#c5bd72" d="M2771 1391c0-25.4 20.4-46 45.5-46a45.7 45.7.0 0 1 45.5 46c0 25.4-20.4 46-45.5 46a45.7 45.7.0 0 1-45.5-46z"/><path fill="#88b97a" d="M2509 1753a46 46 0 1 1 92 0 46 46 0 0 1-92 0z"/><path fill="#8cba7c" d="M2431 1838a46 46 0 1 1 92 0 46 46 0 0 1-92 0z"/><path fill="#16a772" d="M2324 1849.5a45.5 45.5.0 1 1 91 0 45.5 45.5.0 0 1-91 0z"/><path fill="#eea36f" d="M2173 1748.5a45.5 45.5.0 1 1 91 0 45.5 45.5.0 0 1-91 0z"/><path fill="#d27a47" d="M2273 1760a46 46 0 1 1 92 0 46 46 0 0 1-92 0z"/><path fill="#efa673" d="M2354 1698c0-25.4 20.4-46 45.5-46a45.7 45.7.0 0 1 45.5 46c0 25.4-20.4 46-45.5 46a45.7 45.7.0 0 1-45.5-46z"/><path fill="#f0a673" d="M2411 1599.5a45.7 45.7.0 0 1 46-45.5c25.4.0 46 20.4 46 45.5a45.7 45.7.0 0 1-46 45.5c-25.4.0-46-20.4-46-45.5z"/><path fill="#f1a672" d="M2814 1590.5a45.7 45.7.0 0 1 46-45.5c25.4.0 46 20.4 46 45.5a45.7 45.7.0 0 1-46 45.5c-25.4.0-46-20.4-46-45.5z"/><path fill="#d47a47" d="M2828 1691a46 46 0 1 1 92 0 46 46 0 0 1-92 0z"/><path fill="#17a872" d="M2736 1838a46 46 0 1 1 92 0 46 46 0 0 1-92 0z"/><path fill="#f39263" d="M2865 1911c0-25.4 20.4-46 45.5-46a45.7 45.7.0 0 1 45.5 46c0 25.4-20.4 46-45.5 46a45.7 45.7.0 0 1-45.5-46z"/><path fill="#f49668" d="M2913 1620c0-25.4 20.4-46 45.5-46a45.7 45.7.0 0 1 45.5 46c0 25.4-20.4 46-45.5 46a45.7 45.7.0 0 1-45.5-46z"/><path fill="#f49567" d="M2505 1125c0-25.4 20.4-46 45.5-46a45.7 45.7.0 0 1 45.5 46c0 25.4-20.4 46-45.5 46a45.7 45.7.0 0 1-45.5-46z"/><path fill="#0cab73" d="M2723 1031c0-25.4 20.4-46 45.5-46a45.7 45.7.0 0 1 45.5 46c0 25.4-20.4 46-45.5 46a45.7 45.7.0 0 1-45.5-46z"/><path fill="#efa572" d="M2427 758.5a45.7 45.7.0 0 1 46-45.5c25.4.0 46 20.4 46 45.5a45.7 45.7.0 0 1-46 45.5c-25.4.0-46-20.4-46-45.5z"/><path fill="#f29464" d="M2571 719.5a45.7 45.7.0 0 1 46-45.5c25.4.0 46 20.4 46 45.5a45.7 45.7.0 0 1-46 45.5c-25.4.0-46-20.4-46-45.5z"/><path fill="#d17744" d="M2269 770c0-25.4 20.4-46 45.5-46a45.8 45.8.0 0 1 45.5 46c0 25.4-20.4 46-45.5 46a45.8 45.8.0 0 1-45.5-46z"/><path fill="#f49566" d="M2369 634.5a45.8 45.8.0 0 1 46-45.5c25.4.0 46 20.4 46 45.5a45.7 45.7.0 0 1-46 45.5c-25.4.0-46-20.4-46-45.5z"/><path fill="#87914c" d="M2189 655.5a45.5 45.5.0 1 1 91 0 45.5 45.5.0 0 1-91 0z"/><path fill="#89ba79" d="M2092 738a46 46 0 1 1 92 0 46 46 0 0 1-92 0z"/><path fill="#a2a96e" d="M1941 967a46 46 0 1 1 92 0 46 46 0 0 1-92 0z"/><path fill="#efa672" d="M1737 990a46 46 0 1 1 92 0 46 46 0 0 1-92 0z"/><path fill="#d17744" d="M1681 887a46 46 0 1 1 92 0 46 46 0 0 1-92 0z"/><path fill="#8bb97a" d="M1425 955.5a45.7 45.7.0 0 1 46-45.5c25.4.0 46 20.4 46 45.5a45.7 45.7.0 0 1-46 45.5c-25.4.0-46-20.4-46-45.5z"/><path fill="#89b879" d="M1597 719.5a45.7 45.7.0 0 1 46-45.5c25.4.0 46 20.4 46 45.5a45.7 45.7.0 0 1-46 45.5c-25.4.0-46-20.4-46-45.5zm243-57.5a46 46 0 1 1 92 0 46 46 0 0 1-92 0z"/><path fill="#dd9b7a" d="M2161 894a46 46 0 1 1 92 0 46 46 0 0 1-92 0z"/><path fill="#d07641" d="M2262 935a46 46 0 1 1 92 0 46 46 0 0 1-92 0z"/><path fill="#bd7257" d="M2040 1164c0-25.4 20.4-46 45.5-46a45.7 45.7.0 0 1 45.5 46c0 25.4-20.4 46-45.5 46a45.7 45.7.0 0 1-45.5-46z"/><path fill="#10ac78" d="M2514 944a46 46 0 1 1 92 0 46 46 0 0 1-92 0z"/><path fill="#8cbb7c" d="M2784 866a46 46 0 1 1 92 0 46 46 0 0 1-92 0z"/><path fill="#8bba7c" d="M2619 889a46 46 0 1 1 92 0 46 46 0 0 1-92 0z"/><path fill="#f1a776" d="M2943 1072.5a45.5 45.5.0 1 1 91 0 45.5 45.5.0 0 1-91 0z"/><path fill="#f69769" d="M3002 827a46 46 0 1 1 92 0 46 46 0 0 1-92 0z"/><path fill="#f0a673" d="M3101 765.5a45.5 45.5.0 1 1 91 0 45.5 45.5.0 0 1-91 0z"/><path fill="#d37845" d="M3208 747a46 46 0 1 1 92 0 46 46 0 0 1-92 0z"/><path fill="#d47a48" d="M3188 848c0-25.4 20.4-46 45.5-46a45.8 45.8.0 0 1 45.5 46c0 25.4-20.4 46-45.5 46a45.8 45.8.0 0 1-45.5-46z"/><path fill="#d67d4d" d="M3289 873c0-25.4 20.4-46 45.5-46a45.8 45.8.0 0 1 45.5 46c0 25.4-20.4 46-45.5 46a45.8 45.8.0 0 1-45.5-46z"/><path fill="#f7996d" d="M33e2 974a46 46 0 1 1 92 0 46 46 0 0 1-92 0z"/><path fill="#d87f51" d="M3328 1221.5a45.5 45.5.0 1 1 91 0 45.5 45.5.0 0 1-91 0z"/><path fill="#d87d4d" d="M3220 1214.5a45.5 45.5.0 1 1 91 0 45.5 45.5.0 0 1-91 0z"/><path fill="#f6976a" d="M3108 1153c0-25.4 20.4-46 45.5-46a45.7 45.7.0 0 1 45.5 46c0 25.4-20.4 46-45.5 46a45.7 45.7.0 0 1-45.5-46z"/><path fill="#d67c4a" d="M2998 1162c0-25.4 20.4-46 45.5-46a45.7 45.7.0 0 1 45.5 46c0 25.4-20.4 46-45.5 46a45.7 45.7.0 0 1-45.5-46z"/><path fill="#d77c4a" d="M3069 1288c0-25.4 20.4-46 45.5-46a45.7 45.7.0 0 1 45.5 46c0 25.4-20.4 46-45.5 46a45.7 45.7.0 0 1-45.5-46z"/><path fill="#c8be73" d="M2961 1320a46 46 0 1 1 92 0 46 46 0 0 1-92 0z"/><path fill="#f3ab7a" d="M3179 1311c0-25.4 20.4-46 45.5-46a45.7 45.7.0 0 1 45.5 46c0 25.4-20.4 46-45.5 46a45.7 45.7.0 0 1-45.5-46z"/><path fill="#f89a6f" d="M3325 1377a46 46 0 1 1 92 0 46 46 0 0 1-92 0z"/><path fill="#f39569" d="M3140 1542c0-25.4 20.4-46 45.5-46a45.7 45.7.0 0 1 45.5 46c0 25.4-20.4 46-45.5 46a45.7 45.7.0 0 1-45.5-46z"/><path fill="#d57d4d" d="M3032 1517a46 46 0 1 1 92 0 46 46 0 0 1-92 0z"/><path fill="#f1a877" d="M3254 1577a46 46 0 1 1 92 0 46 46 0 0 1-92 0z"/><path fill="#efa676" d="M3183 1774a46 46 0 1 1 92 0 46 46 0 0 1-92 0z"/><path fill="#d57a47" d="M3078 1755.5a45.5 45.5.0 1 1 91 0 45.5 45.5.0 0 1-91 0z"/><path fill="#efa573" d="M3023 1645.5a45.5 45.5.0 1 1 91 0 45.5 45.5.0 0 1-91 0z"/><path fill="#d47a48" d="M2968 1923c0-25.4 20.4-46 45.5-46a45.7 45.7.0 0 1 45.5 46c0 25.4-20.4 46-45.5 46a45.7 45.7.0 0 1-45.5-46z"/><path fill="#d57d4d" d="M3053 1991.5a45.5 45.5.0 1 1 91 0 45.5 45.5.0 0 1-91 0z"/><path fill="#f39264" d="M28e2 2076a46 46 0 1 1 92 0 46 46 0 0 1-92 0z"/><path fill="#eea26f" d="M27e2 2023.5a45.5 45.5.0 1 1 91 0 45.5 45.5.0 0 1-91 0z"/><path fill="#d27947" d="M2654 2120c0-25.4 20.4-46 45.5-46a45.7 45.7.0 0 1 45.5 46c0 25.4-20.4 46-45.5 46a45.7 45.7.0 0 1-45.5-46z"/><path fill="#d57a47" d="M2276 1994c0-25.4 20.4-46 45.5-46a45.7 45.7.0 0 1 45.5 46c0 25.4-20.4 46-45.5 46a45.7 45.7.0 0 1-45.5-46zm-223-117a46 46 0 1 1 92 0 46 46 0 0 1-92 0z"/><path fill="#f49569" d="M2156 1852a46 46 0 1 1 92 0 46 46 0 0 1-92 0z"/><path fill="#d27947" d="M1925 2138a46 46 0 1 1 92 0 46 46 0 0 1-92 0z"/><path fill="#d27644" d="M1907 2246c0-25.4 20.4-46 45.5-46a45.7 45.7.0 0 1 45.5 46c0 25.4-20.4 46-45.5 46a45.7 45.7.0 0 1-45.5-46z"/><path fill="#f29364" d="M1859 2053.5a45.5 45.5.0 1 1 91 0 45.5 45.5.0 0 1-91 0z"/><path fill="#eea575" d="M1826 2163.5a45.7 45.7.0 0 1 46-45.5c25.4.0 46 20.4 46 45.5a45.7 45.7.0 0 1-46 45.5c-25.4.0-46-20.4-46-45.5z"/><path fill="#f39463" d="M2090 2285a46 46 0 1 1 92 0 46 46 0 0 1-92 0z"/><path fill="#f39263" d="M2195 2292a46 46 0 1 1 92 0 46 46 0 0 1-92 0z"/><path fill="#d17845" d="M2335 2172.5a45.7 45.7.0 0 1 46-45.5c25.4.0 46 20.4 46 45.5a45.7 45.7.0 0 1-46 45.5c-25.4.0-46-20.4-46-45.5z"/><path fill="#efa575" d="M2342 2074a46 46 0 1 1 92 0 46 46 0 0 1-92 0z"/><path fill="#efa573" d="M2672 2232a46 46 0 1 1 92 0 46 46 0 0 1-92 0z"/><path fill="#d37845" d="M2569 2182a46 46 0 1 1 92 0 46 46 0 0 1-92 0z"/><path fill="#f3956a" d="M2780 2250.5a45.5 45.5.0 1 1 91 0 45.5 45.5.0 0 1-91 0z"/><path fill="#d57d4d" d="M2881 2154c0-25.4 20.4-46 45.5-46a45.7 45.7.0 0 1 45.5 46c0 25.4-20.4 46-45.5 46a45.7 45.7.0 0 1-45.5-46z"/><path fill="#d57b49" d="M2457 1987c0-25.4 20.4-46 45.5-46a45.7 45.7.0 0 1 45.5 46c0 25.4-20.4 46-45.5 46a45.7 45.7.0 0 1-45.5-46z"/><path fill="#f1aa7b" d="M2113 2429a46 46 0 1 1 92 0 46 46 0 0 1-92 0z"/><path fill="#d27a49" d="M1618 2145a46 46 0 1 1 92 0 46 46 0 0 1-92 0z"/><path fill="#f09263" d="M1689 1913.5a45.7 45.7.0 0 1 46-45.5c25.4.0 46 20.4 46 45.5a45.7 45.7.0 0 1-46 45.5c-25.4.0-46-20.4-46-45.5z"/><path fill="#bf785d" d="M2083 1684.5a45.8 45.8.0 0 1 46-45.5c25.4.0 46 20.4 46 45.5a45.7 45.7.0 0 1-46 45.5c-25.4.0-46-20.4-46-45.5z"/><path fill="#f0966b" d="M1474 2223c0-25.4 20.4-46 45.5-46a45.7 45.7.0 0 1 45.5 46c0 25.4-20.4 46-45.5 46a45.7 45.7.0 0 1-45.5-46z"/><path fill="#eea979" d="M1336 2097a46 46 0 1 1 92 0 46 46 0 0 1-92 0z"/><path fill="#8cbb7d" d="M1639 1728c0-25.4 20.4-46 45.5-46a45.7 45.7.0 0 1 45.5 46c0 25.4-20.4 46-45.5 46a45.7 45.7.0 0 1-45.5-46z"/><path fill="#eea675" d="M1274 664.5a45.7 45.7.0 0 1 46-45.5c25.4.0 46 20.4 46 45.5a45.7 45.7.0 0 1-46 45.5c-25.4.0-46-20.4-46-45.5z"/><path fill="#eda674" d="M1221 811a46 46 0 1 1 92 0 46 46 0 0 1-92 0z"/><path fill="#d17d4d" d="M1054 981a46 46 0 1 1 92 0 46 46 0 0 1-92 0z"/><path fill="#d17b4a" d="M1169 1088.5a45.5 45.5.0 1 1 91 0 45.5 45.5.0 0 1-91 0z"/><path fill="#f3976a" d="M1189 914.5a45.7 45.7.0 0 1 46-45.5c25.4.0 46 20.4 46 45.5a45.7 45.7.0 0 1-46 45.5c-25.4.0-46-20.4-46-45.5z"/><path fill="#ef9061" d="M1895 875.5a45.7 45.7.0 0 1 46-45.5c25.4.0 46 20.4 46 45.5a45.7 45.7.0 0 1-46 45.5c-25.4.0-46-20.4-46-45.5z"/><path fill="#c5bd76" d="M1849 1020a46 46 0 1 1 92 0 46 46 0 0 1-92 0z"/><path fill="#f19567" d="M1877 554.5a45.7 45.7.0 0 1 46-45.5c25.4.0 46 20.4 46 45.5a45.7 45.7.0 0 1-46 45.5c-25.4.0-46-20.4-46-45.5z"/><path fill="#f0a976" d="M2026 449a46 46 0 1 1 92 0 46 46 0 0 1-92 0z"/><path fill="#efaa78" d="M2035 548a46 46 0 1 1 92 0 46 46 0 0 1-92 0z"/><path fill="#f0a876" d="M2129 454a46 46 0 1 1 92 0 46 46 0 0 1-92 0z"/><path fill="#f59668" d="M2374 270.5a45.7 45.7.0 0 1 46-45.5c25.4.0 46 20.4 46 45.5a45.7 45.7.0 0 1-46 45.5c-25.4.0-46-20.4-46-45.5z"/><path fill="#d17643" d="M2216 399a46 46 0 1 1 92 0 46 46 0 0 1-92 0z"/><path fill="#ce753f" d="M2145 554.5a45.7 45.7.0 0 1 46-45.5c25.4.0 46 20.4 46 45.5a45.7 45.7.0 0 1-46 45.5c-25.4.0-46-20.4-46-45.5z"/><path fill="#f1a774" d="M2422 378a46 46 0 1 1 92 0 46 46 0 0 1-92 0z"/><path fill="#d27845" d="M2486 307a46 46 0 1 1 92 0 46 46 0 0 1-92 0z"/><path fill="#d17644" d="M2578 273a46 46 0 1 1 92 0 46 46 0 0 1-92 0z"/><path fill="#d37946" d="M2654 195c0-25.4 20.4-46 45.5-46a45.8 45.8.0 0 1 45.5 46c0 25.4-20.4 46-45.5 46a45.8 45.8.0 0 1-45.5-46z"/><path fill="#f1a776" d="M2690 302.5a45.7 45.7.0 0 1 46-45.5c25.4.0 46 20.4 46 45.5a45.7 45.7.0 0 1-46 45.5c-25.4.0-46-20.4-46-45.5z"/><path fill="#efa573" d="M2567 456c0-25.4 20.4-46 45.5-46a45.8 45.8.0 0 1 45.5 46c0 25.4-20.4 46-45.5 46a45.8 45.8.0 0 1-45.5-46z"/><path fill="#f39467" d="M2718 483.5a45.7 45.7.0 0 1 46-45.5c25.4.0 46 20.4 46 45.5a45.7 45.7.0 0 1-46 45.5c-25.4.0-46-20.4-46-45.5z"/><path fill="#d07643" d="M2122 195a46 46 0 1 1 92 0 46 46 0 0 1-92 0z"/><path fill="#ce7544" d="M2273 213a46 46 0 1 1 92 0 46 46 0 0 1-92 0z"/><path fill="#f49769" d="M2168 78a46 46 0 1 1 92 0 46 46 0 0 1-92 0z"/><path fill="#d07645" d="M1948 98.5a45.7 45.7.0 0 1 46-45.5c25.4.0 46 20.4 46 45.5a45.7 45.7.0 0 1-46 45.5c-25.4.0-46-20.4-46-45.5z"/><path fill="#efa676" d="M1817 279.5a45.7 45.7.0 0 1 46-45.5c25.4.0 46 20.4 46 45.5a45.7 45.7.0 0 1-46 45.5c-25.4.0-46-20.4-46-45.5z"/><path fill="#d07746" d="M1771 367a46 46 0 1 1 92 0 46 46 0 0 1-92 0z"/><path fill="#f49668" d="M1689 188a46 46 0 1 1 92 0 46 46 0 0 1-92 0z"/><path fill="#f5986c" d="M1485 302.5a45.7 45.7.0 0 1 46-45.5c25.4.0 46 20.4 46 45.5a45.7 45.7.0 0 1-46 45.5c-25.4.0-46-20.4-46-45.5z"/><path fill="#d37a4a" d="M1389 348.5a45.5 45.5.0 1 1 91 0 45.5 45.5.0 0 1-91 0z"/><path fill="#cf7947" d="M1414 440a46 46 0 1 1 92 0 46 46 0 0 1-92 0z"/><path fill="#efa773" d="M1506 506.5a45.5 45.5.0 1 1 91 0 45.5 45.5.0 0 1-91 0z"/><path fill="#d07c4c" d="M1210 532a46 46 0 1 1 92 0 46 46 0 0 1-92 0z"/><path fill="#13a973" d="M1666 646a46 46 0 1 1 92 0 46 46 0 0 1-92 0z"/><path fill="#c4ba70" d="M1739 8e2a46 46 0 1 1 92 0 46 46 0 0 1-92 0z"/><path fill="#87924f" d="M1501 674a46 46 0 1 1 92 0 46 46 0 0 1-92 0z"/><path fill="#f19668" d="M1448 589a46 46 0 1 1 92 0 46 46 0 0 1-92 0z"/><path fill="#eea676" d="M2026 213a46 46 0 1 1 92 0 46 46 0 0 1-92 0z"/><path fill="#f2aa7a" d="M2546 149a46 46 0 1 1 92 0 46 46 0 0 1-92 0z"/><path fill="#f59b70" d="M2791 261a46 46 0 1 1 92 0 46 46 0 0 1-92 0z"/><path fill="#d27947" d="M2931 392a46 46 0 1 1 92 0 46 46 0 0 1-92 0z"/><path fill="#d17645" d="M2878 486a46 46 0 1 1 92 0 46 46 0 0 1-92 0z"/><path fill="#0eaa74" d="M2807 625.5a45.7 45.7.0 0 1 46-45.5c25.4.0 46 20.4 46 45.5a45.7 45.7.0 0 1-46 45.5c-25.4.0-46-20.4-46-45.5z"/><path fill="#f2a877" d="M2998 582c0-25.4 20.4-46 45.5-46a45.8 45.8.0 0 1 45.5 46c0 25.4-20.4 46-45.5 46a45.8 45.8.0 0 1-45.5-46z"/><path fill="#f59667" d="M3078 511c0-25.4 20.4-46 45.5-46a45.8 45.8.0 0 1 45.5 46c0 25.4-20.4 46-45.5 46a45.8 45.8.0 0 1-45.5-46z"/><path fill="#efa875" d="M2920 639.5a45.5 45.5.0 1 1 91 0 45.5 45.5.0 0 1-91 0z"/><path fill="#d27644" d="M3016 697a46 46 0 1 1 92 0 46 46 0 0 1-92 0z"/><path fill="#f3976a" d="M2548 557a46 46 0 1 1 92 0 46 46 0 0 1-92 0z"/><path fill="#efa676" d="M2794 1107c0-25.4 20.4-46 45.5-46a45.7 45.7.0 0 1 45.5 46c0 25.4-20.4 46-45.5 46a45.7 45.7.0 0 1-45.5-46z"/><path fill="#f5976b" d="M3103 1439a46 46 0 1 1 92 0 46 46 0 0 1-92 0z"/><path fill="#19a874" d="M2551 1842.5a36.5 36.5.0 1 1 73 0 36.5 36.5.0 0 1-73 0z"/><path fill="#8ab779" d="M2645 1854c0-20.4 16.3-37 36.5-37a36.8 36.8.0 0 1 36.5 37c0 20.4-16.3 37-36.5 37a36.8 36.8.0 0 1-36.5-37z"/><path fill="#f19262" d="M2702 1920.5a36.5 36.5.0 1 1 73 0 36.5 36.5.0 0 1-73 0z"/><path fill="#d57a47" d="M2791 1980a37 37 0 1 1 74 0 37 37 0 0 1-74 0z"/><path fill="#eea573" d="M2823 1785.5a36.8 36.8.0 0 1 37-36.5c20.4.0 37 16.3 37 36.5a36.8 36.8.0 0 1-37 36.5c-20.4.0-37-16.3-37-36.5z"/><path fill="#eea574" d="M3032 1835.5a36.5 36.5.0 1 1 73 0 36.5 36.5.0 0 1-73 0z"/><path fill="#f1986f" d="M3142 1922.5a36.5 36.5.0 1 1 73 0 36.5 36.5.0 0 1-73 0z"/><path fill="#d37e4d" d="M3185 1634a37 37 0 1 1 74 0 37 37 0 0 1-74 0z"/><path fill="#d37e4f" d="M3240 1700.5a36.8 36.8.0 0 1 37-36.5c20.4.0 37 16.3 37 36.5a36.8 36.8.0 0 1-37 36.5c-20.4.0-37-16.3-37-36.5z"/><path fill="#f39568" d="M2759 2158.5a36.8 36.8.0 0 1 37-36.5c20.4.0 37 16.3 37 36.5a36.8 36.8.0 0 1-37 36.5c-20.4.0-37-16.3-37-36.5z"/><path fill="#f39366" d="M2477 2177a37 37 0 1 1 74 0 37 37 0 0 1-74 0z"/><path fill="#eea574" d="M2441 2087.5a36.5 36.5.0 1 1 73 0 36.5 36.5.0 0 1-73 0z"/><path fill="#f39467" d="M2019 1982.5a36.5 36.5.0 1 1 73 0 36.5 36.5.0 0 1-73 0z"/><path fill="#d17b4c" d="M1590 1984.5a36.8 36.8.0 0 1 37-36.5c20.4.0 37 16.3 37 36.5a36.8 36.8.0 0 1-37 36.5c-20.4.0-37-16.3-37-36.5z"/><path fill="#d57d4e" d="M1506 2021.5a36.5 36.5.0 1 1 73 0 36.5 36.5.0 0 1-73 0z"/><path fill="#d07a49" d="M1771 2239a37 37 0 1 1 74 0 37 37 0 0 1-74 0z"/><path fill="#f09364" d="M1680 2232c0-20.4 16.3-37 36.5-37a36.8 36.8.0 0 1 36.5 37c0 20.4-16.3 37-36.5 37a36.8 36.8.0 0 1-36.5-37z"/><path fill="#f19367" d="M1838 2307.5a36.5 36.5.0 1 1 73 0 36.5 36.5.0 0 1-73 0z"/><path fill="#f0976b" d="M1891 2397c0-20.4 16.3-37 36.5-37a36.8 36.8.0 0 1 36.5 37c0 20.4-16.3 37-36.5 37a36.8 36.8.0 0 1-36.5-37z"/><path fill="#eda472" d="M2010 2259.5a36.5 36.5.0 1 1 73 0 36.5 36.5.0 0 1-73 0z"/><path fill="#eea574" d="M2095 2168c0-20.4 16.3-37 36.5-37a36.8 36.8.0 0 1 36.5 37c0 20.4-16.3 37-36.5 37a36.8 36.8.0 0 1-36.5-37z"/><path fill="#f19568" d="M2372 2388c0-20.4 16.3-37 36.5-37a36.8 36.8.0 0 1 36.5 37c0 20.4-16.3 37-36.5 37a36.8 36.8.0 0 1-36.5-37z"/><path fill="#d27c4c" d="M2228 2420c0-20.4 16.3-37 36.5-37a36.8 36.8.0 0 1 36.5 37c0 20.4-16.3 37-36.5 37a36.8 36.8.0 0 1-36.5-37z"/><path fill="#ce7949" d="M2310 2319.5a36.5 36.5.0 1 1 73 0 36.5 36.5.0 0 1-73 0z"/><path fill="#cf7b4b" d="M2173 22e2c0-20.4 16.3-37 36.5-37a36.8 36.8.0 0 1 36.5 37c0 20.4-16.3 37-36.5 37a36.8 36.8.0 0 1-36.5-37z"/><path fill="#d47b4a" d="M2193 1934.5a36.5 36.5.0 1 1 73 0 36.5 36.5.0 0 1-73 0z"/><path fill="#eea574" d="M2113 1959.5a36.5 36.5.0 1 1 73 0 36.5 36.5.0 0 1-73 0z"/><path fill="#df9d7d" d="M2001 1739.5a36.5 36.5.0 1 1 73 0 36.5 36.5.0 0 1-73 0z"/><path fill="#bd7357" d="M1845 1762.5a36.5 36.5.0 1 1 73 0 36.5 36.5.0 0 1-73 0z"/><path fill="#de9c7c" d="M1804 1844.5a36.5 36.5.0 1 1 73 0 36.5 36.5.0 0 1-73 0z"/><path fill="#eea777" d="M1856 1631.5a36.8 36.8.0 0 1 37-36.5c20.4.0 37 16.3 37 36.5a36.8 36.8.0 0 1-37 36.5c-20.4.0-37-16.3-37-36.5z"/><path fill="#f29364" d="M1934 1572a37 37 0 1 1 74 0 37 37 0 0 1-74 0z"/><path fill="#c3ba6f" d="M2012 1496.5a36.5 36.5.0 1 1 73 0 36.5 36.5.0 0 1-73 0z"/><path fill="#a9ae74" d="M2106 1501c0-20.4 16.3-37 36.5-37a36.8 36.8.0 0 1 36.5 37c0 20.4-16.3 37-36.5 37a36.8 36.8.0 0 1-36.5-37z"/><path fill="#c4bd74" d="M2319 1409.5a36.8 36.8.0 0 1 37-36.5c20.4.0 37 16.3 37 36.5a36.8 36.8.0 0 1-37 36.5c-20.4.0-37-16.3-37-36.5z"/><path fill="#8c9455" d="M2228 1317.5a36.5 36.5.0 1 1 73 0 36.5 36.5.0 0 1-73 0z"/><path fill="#c4bc72" d="M2145 1347.5a36.5 36.5.0 1 1 73 0 36.5 36.5.0 0 1-73 0z"/><path fill="#dd9a7a" d="M1998 1253.5a36.8 36.8.0 0 1 37-36.5c20.4.0 37 16.3 37 36.5a36.8 36.8.0 0 1-37 36.5c-20.4.0-37-16.3-37-36.5z"/><path fill="#bd7458" d="M1914 1274.5a36.5 36.5.0 1 1 73 0 36.5 36.5.0 0 1-73 0z"/><path fill="#c5bc72" d="M1689 1253.5a36.5 36.5.0 1 1 73 0 36.5 36.5.0 0 1-73 0z"/><path fill="#f29669" d="M1563 1166.5a36.5 36.5.0 1 1 73 0 36.5 36.5.0 0 1-73 0z"/><path fill="#d17946" d="M1453 1171c0-20.4 16.3-37 36.5-37a36.8 36.8.0 0 1 36.5 37c0 20.4-16.3 37-36.5 37a36.8 36.8.0 0 1-36.5-37z"/><path fill="#eea776" d="M1377 1235.5a36.8 36.8.0 0 1 37-36.5c20.4.0 37 16.3 37 36.5a36.8 36.8.0 0 1-37 36.5c-20.4.0-37-16.3-37-36.5z"/><path fill="#eea573" d="M1435 1379.5a36.5 36.5.0 1 1 73 0 36.5 36.5.0 0 1-73 0z"/><path fill="#d37a47" d="M1508 1427.5a36.5 36.5.0 1 1 73 0 36.5 36.5.0 0 1-73 0z"/><path fill="#c3bc72" d="M1629 1567.5a36.8 36.8.0 0 1 37-36.5c20.4.0 37 16.3 37 36.5a36.8 36.8.0 0 1-37 36.5c-20.4.0-37-16.3-37-36.5z"/><path fill="#a8af76" d="M1710 1476c0-20.4 16.3-37 36.5-37a36.8 36.8.0 0 1 36.5 37c0 20.4-16.3 37-36.5 37a36.8 36.8.0 0 1-36.5-37z"/><path fill="#df9c7b" d="M1382 1817.5a36.5 36.5.0 1 1 73 0 36.5 36.5.0 0 1-73 0z"/><path fill="#f1966a" d="M1441 1883.5a36.8 36.8.0 0 1 37-36.5c20.4.0 37 16.3 37 36.5a36.8 36.8.0 0 1-37 36.5c-20.4.0-37-16.3-37-36.5z"/><path fill="#f09569" d="M1425 2046.5a36.8 36.8.0 0 1 37-36.5c20.4.0 37 16.3 37 36.5a36.8 36.8.0 0 1-37 36.5c-20.4.0-37-16.3-37-36.5z"/><path fill="#f39a6f" d="M1086 1682a37 37 0 1 1 74 0 37 37 0 0 1-74 0z"/><path fill="#eda778" d="M1627 2310c0-20.4 16.3-37 36.5-37a36.8 36.8.0 0 1 36.5 37c0 20.4-16.3 37-36.5 37a36.8 36.8.0 0 1-36.5-37z"/><path fill="#edab7e" d="M1540 2298.5a36.5 36.5.0 1 1 73 0 36.5 36.5.0 0 1-73 0z"/><path fill="#d47f52" d="M1441 2136a37 37 0 1 1 74 0 37 37 0 0 1-74 0z"/><path fill="#eda576" d="M1531 2106c0-20.4 16.3-37 36.5-37a36.8 36.8.0 0 1 36.5 37c0 20.4-16.3 37-36.5 37a36.8 36.8.0 0 1-36.5-37z"/><path fill="#efa573" d="M2138 1590.5a36.5 36.5.0 1 1 73 0 36.5 36.5.0 0 1-73 0z"/><path fill="#8bba7c" d="M2651 1551.5a36.8 36.8.0 0 1 37-36.5c20.4.0 37 16.3 37 36.5a36.8 36.8.0 0 1-37 36.5c-20.4.0-37-16.3-37-36.5z"/><path fill="#c6bc73" d="M2938 1526.5a36.5 36.5.0 1 1 73 0 36.5 36.5.0 0 1-73 0z"/><path fill="#efa97c" d="M3034 2083a37 37 0 1 1 74 0 37 37 0 0 1-74 0z"/><path fill="#d67f53" d="M3284 1297c0-20.4 16.3-37 36.5-37a36.8 36.8.0 0 1 36.5 37c0 20.4-16.3 37-36.5 37a36.8 36.8.0 0 1-36.5-37z"/><path fill="#f6986b" d="M2913 1194c0-20.4 16.3-37 36.5-37a36.8 36.8.0 0 1 36.5 37c0 20.4-16.3 37-36.5 37a36.8 36.8.0 0 1-36.5-37z"/><path fill="#d37947" d="M3053 1081.5a36.5 36.5.0 1 1 73 0 36.5 36.5.0 0 1-73 0z"/><path fill="#f5976a" d="M3181 1077c0-20.4 16.3-37 36.5-37a36.8 36.8.0 0 1 36.5 37c0 20.4-16.3 37-36.5 37a36.8 36.8.0 0 1-36.5-37z"/><path fill="#f0a777" d="M3103 866.5a36.5 36.5.0 1 1 73 0 36.5 36.5.0 0 1-73 0z"/><path fill="#f5986b" d="M2899 992.5a36.5 36.5.0 1 1 73 0 36.5 36.5.0 0 1-73 0z"/><path fill="#f1a978" d="M2993 483.5a36.5 36.5.0 1 1 73 0 36.5 36.5.0 0 1-73 0z"/><path fill="#d17948" d="M2890 311.5a36.5 36.5.0 1 1 73 0 36.5 36.5.0 0 1-73 0z"/><path fill="#d07644" d="M2681 405.5a36.8 36.8.0 0 1 37-36.5c20.4.0 37 16.3 37 36.5a36.8 36.8.0 0 1-37 36.5c-20.4.0-37-16.3-37-36.5z"/><path fill="#f39467" d="M2599 366.5a36.5 36.5.0 1 1 73 0 36.5 36.5.0 0 1-73 0z"/><path fill="#f4976b" d="M2475 217.5a36.5 36.5.0 1 1 73 0 36.5 36.5.0 0 1-73 0z"/><path fill="#ce7848" d="M2276 105.5a36.5 36.5.0 1 1 73 0 36.5 36.5.0 0 1-73 0z"/><path fill="#ce7847" d="M1914 249.5a36.5 36.5.0 1 1 73 0 36.5 36.5.0 0 1-73 0z"/><path fill="#efa778" d="M2191 266c0-20.4 16.3-37 36.5-37a36.8 36.8.0 0 1 36.5 37c0 20.4-16.3 37-36.5 37a36.8 36.8.0 0 1-36.5-37z"/><path fill="#efa674" d="M2319 465.5a36.8 36.8.0 0 1 37-36.5c20.4.0 37 16.3 37 36.5a36.8 36.8.0 0 1-37 36.5c-20.4.0-37-16.3-37-36.5z"/><path fill="#cc7644" d="M2244 543c0-20.4 16.3-37 36.5-37a36.8 36.8.0 0 1 36.5 37c0 20.4-16.3 37-36.5 37a36.8 36.8.0 0 1-36.5-37z"/><path fill="#eda777" d="M2333 547.5a36.5 36.5.0 1 1 73 0 36.5 36.5.0 0 1-73 0z"/><path fill="#f0a979" d="M1655 298c0-20.4 16.3-37 36.5-37a36.8 36.8.0 0 1 36.5 37c0 20.4-16.3 37-36.5 37a36.8 36.8.0 0 1-36.5-37z"/><path fill="#eca672" d="M1609 570.5a36.5 36.5.0 1 1 73 0 36.5 36.5.0 0 1-73 0z"/><path fill="#f0aa7a" d="M1325 419.5a36.5 36.5.0 1 1 73 0 36.5 36.5.0 0 1-73 0z"/><path fill="#ef9769" d="M1327 793c0-20.4 16.3-37 36.5-37a36.8 36.8.0 0 1 36.5 37c0 20.4-16.3 37-36.5 37a36.8 36.8.0 0 1-36.5-37z"/><path fill="#f09669" d="M1118 708a37 37 0 1 1 74 0 37 37 0 0 1-74 0z"/><path fill="#cf7948" d="M1336 953.5a36.5 36.5.0 1 1 73 0 36.5 36.5.0 0 1-73 0z"/><path fill="#db9b7b" d="M1602 958c0-20.4 16.3-37 36.5-37a36.8 36.8.0 0 1 36.5 37c0 20.4-16.3 37-36.5 37a36.8 36.8.0 0 1-36.5-37z"/><path fill="#c2bc6f" d="M2090 641.5a36.5 36.5.0 1 1 73 0 36.5 36.5.0 0 1-73 0z"/><path fill="#1ba874" d="M2026 811.5a36.5 36.5.0 1 1 73 0 36.5 36.5.0 0 1-73 0z"/><path fill="#bc765a" d="M22e2 983c0-20.4 16.3-37 36.5-37a36.8 36.8.0 0 1 36.5 37c0 20.4-16.3 37-36.5 37a36.8 36.8.0 0 1-36.5-37z"/><path fill="#d07846" d="M2486 630.5a36.8 36.8.0 0 1 37-36.5c20.4.0 37 16.3 37 36.5a36.8 36.8.0 0 1-37 36.5c-20.4.0-37-16.3-37-36.5z"/><path fill="#d27845" d="M2642 520.5a36.8 36.8.0 0 1 37-36.5c20.4.0 37 16.3 37 36.5a36.8 36.8.0 0 1-37 36.5c-20.4.0-37-16.3-37-36.5z"/><path fill="#dd9b7b" d="M2131 1102.5a36.8 36.8.0 0 1 37-36.5c20.4.0 37 16.3 37 36.5a36.8 36.8.0 0 1-37 36.5c-20.4.0-37-16.3-37-36.5z"/><path fill="#8bbc7b" d="M2647 1058.5a36.5 36.5.0 1 1 73 0 36.5 36.5.0 0 1-73 0z"/><path fill="#eea572" d="M2216 1143.5a36.5 36.5.0 1 1 73 0 36.5 36.5.0 0 1-73 0z"/><path fill="#eea877" d="M2525 1249a37 37 0 1 1 74 0 37 37 0 0 1-74 0z"/><path fill="#8aba7c" d="M2706 1274.5a36.8 36.8.0 0 1 37-36.5c20.4.0 37 16.3 37 36.5a36.8 36.8.0 0 1-37 36.5c-20.4.0-37-16.3-37-36.5z"/><path fill="#8dbb7d" d="M2587 1189.5a36.8 36.8.0 0 1 37-36.5c20.4.0 37 16.3 37 36.5a36.8 36.8.0 0 1-37 36.5c-20.4.0-37-16.3-37-36.5z"/><path fill="#8bba7e" d="M2693 1356.5a36.5 36.5.0 1 1 73 0 36.5 36.5.0 0 1-73 0z"/><path fill="#efa573" d="M2495 1910c0-16 12.8-29 28.5-29s28.5 13 28.5 29-12.8 29-28.5 29-28.5-13-28.5-29z"/><path fill="#d18055" d="M1202 1928c0-16 12.8-29 28.5-29s28.5 13 28.5 29-12.8 29-28.5 29-28.5-13-28.5-29z"/><path fill="#eca779" d="M1203 1849.5a28.5 28.5.0 1 1 57 0 28.5 28.5.0 0 1-57 0z"/><path fill="#bf7a5f" d="M1472 1555.5a28.5 28.5.0 1 1 57 0 28.5 28.5.0 0 1-57 0z"/><path fill="#f1966a" d="M1387 1552.5a28.5 28.5.0 1 1 57 0 28.5 28.5.0 0 1-57 0z"/><path fill="#edaa7b" d="M1329 1473c0-16 12.8-29 28.5-29s28.5 13 28.5 29-12.8 29-28.5 29-28.5-13-28.5-29z"/><path fill="#eea878" d="M991 1217c0-16 12.8-29 28.5-29s28.5 13 28.5 29-12.8 29-28.5 29-28.5-13-28.5-29z"/><path fill="#f2976b" d="M1139 1341a29 29 0 1 1 58 0 29 29 0 0 1-58 0z"/><path fill="#eea87a" d="M1211 1330c0-16 12.8-29 28.5-29s28.5 13 28.5 29-12.8 29-28.5 29-28.5-13-28.5-29z"/><path fill="#d17d4d" d="M1197 1407c0-16 12.8-29 28.5-29s28.5 13 28.5 29-12.8 29-28.5 29-28.5-13-28.5-29z"/><path fill="#d17c4d" d="M1258 1250c0-16 12.8-29 28.5-29s28.5 13 28.5 29-12.8 29-28.5 29-28.5-13-28.5-29z"/><path fill="#35a675" d="M1412 1041c0-16 12.8-29 28.5-29s28.5 13 28.5 29-12.8 29-28.5 29-28.5-13-28.5-29z"/><path fill="#30a674" d="M1494 1044c0-16 12.8-29 28.5-29s28.5 13 28.5 29-12.8 29-28.5 29-28.5-13-28.5-29z"/><path fill="#8dba7c" d="M1538 939.5a28.5 28.5.0 1 1 57 0 28.5 28.5.0 0 1-57 0z"/><path fill="#eca673" d="M1373 876c0-16 12.8-29 28.5-29s28.5 13 28.5 29-12.8 29-28.5 29-28.5-13-28.5-29z"/><path fill="#cf7a49" d="M1296 884.5a28.5 28.5.0 1 1 57 0 28.5 28.5.0 0 1-57 0zm549 47c0-15.7 13-28.5 29-28.5s29 12.8 29 28.5-13 28.5-29 28.5-29-12.8-29-28.5z"/><path fill="#dc9877" d="M2215 1068.5a28.5 28.5.0 1 1 57 0 28.5 28.5.0 0 1-57 0z"/><path fill="#dc9a7a" d="M2121 972.5a28.5 28.5.0 1 1 57 0 28.5 28.5.0 0 1-57 0z"/><path fill="#8a9457" d="M1995 884.5a28.5 28.5.0 1 1 57 0 28.5 28.5.0 0 1-57 0z"/><path fill="#8ebb7e" d="M2088 890c0-16 12.8-29 28.5-29s28.5 13 28.5 29-12.8 29-28.5 29-28.5-13-28.5-29z"/><path fill="#33a979" d="M2457 1066c0-16 12.8-29 28.5-29s28.5 13 28.5 29-12.8 29-28.5 29-28.5-13-28.5-29z"/><path fill="#a5ac72" d="M2374 1066c0-16 12.8-29 28.5-29s28.5 13 28.5 29-12.8 29-28.5 29-28.5-13-28.5-29z"/><path fill="#eea875" d="M1956 1442.5a28.5 28.5.0 1 1 57 0 28.5 28.5.0 0 1-57 0z"/><path fill="#c4bc73" d="M2473 1519.5a28.5 28.5.0 1 1 57 0 28.5 28.5.0 0 1-57 0z"/><path fill="#d07d4c" d="M2459 1679a29 29 0 1 1 58 0 29 29 0 0 1-58 0z"/><path fill="#ce7b49" d="M2440 1745c0-16 12.8-29 28.5-29s28.5 13 28.5 29-12.8 29-28.5 29-28.5-13-28.5-29z"/><path fill="#ee976d" d="M2382 1778a29 29 0 1 1 58 0 29 29 0 0 1-58 0z"/><path fill="#eea572" d="M2264 1902c0-16 12.8-29 28.5-29s28.5 13 28.5 29-12.8 29-28.5 29-28.5-13-28.5-29z"/><path fill="#eea574" d="M2190 2012c0-16 12.8-29 28.5-29s28.5 13 28.5 29-12.8 29-28.5 29-28.5-13-28.5-29z"/><path fill="#eca373" d="M1984 2058.5a28.5 28.5.0 1 1 57 0 28.5 28.5.0 0 1-57 0z"/><path fill="#ef9669" d="M2028 2111c0-16 12.8-29 28.5-29s28.5 13 28.5 29-12.8 29-28.5 29-28.5-13-28.5-29z"/><path fill="#d17c4c" d="M2019 2182.5c0-15.7 13-28.5 29-28.5s29 12.8 29 28.5-13 28.5-29 28.5-29-12.8-29-28.5z"/><path fill="#d17947" d="M2256 2212.5a28.5 28.5.0 1 1 57 0 28.5 28.5.0 0 1-57 0z"/><path fill="#f1976d" d="M2462 2364c0-16 12.8-29 28.5-29s28.5 13 28.5 29-12.8 29-28.5 29-28.5-13-28.5-29z"/><path fill="#f19469" d="M1632 2061.5a28.5 28.5.0 1 1 57 0 28.5 28.5.0 0 1-57 0z"/><path fill="#d27f50" d="M1681 2001c0-16 12.8-29 28.5-29s28.5 13 28.5 29-12.8 29-28.5 29-28.5-13-28.5-29z"/><path fill="#eea777" d="M1530 1943c0-16 12.8-29 28.5-29s28.5 13 28.5 29-12.8 29-28.5 29-28.5-13-28.5-29z"/><path fill="#d37e4e" d="M1456 1970.5a28.5 28.5.0 1 1 57 0 28.5 28.5.0 0 1-57 0z"/><path fill="#cd7d4e" d="M1379 1924c0-16 12.8-29 28.5-29s28.5 13 28.5 29-12.8 29-28.5 29-28.5-13-28.5-29z"/><path fill="#90bc85" d="M1549 1555.5a28.5 28.5.0 1 1 57 0 28.5 28.5.0 0 1-57 0z"/><path fill="#8f9c5d" d="M1577 1627c0-16 12.8-29 28.5-29s28.5 13 28.5 29-12.8 29-28.5 29-28.5-13-28.5-29z"/><path fill="#18aa76" d="M1505 1616c0-16 12.8-29 28.5-29s28.5 13 28.5 29-12.8 29-28.5 29-28.5-13-28.5-29z"/><path fill="#eda978" d="M1181 997c0-16 12.8-29 28.5-29s28.5 13 28.5 29-12.8 29-28.5 29-28.5-13-28.5-29z"/><path fill="#8b9252" d="M2226 1242c0-16 12.8-29 28.5-29s28.5 13 28.5 29-12.8 29-28.5 29-28.5-13-28.5-29z"/><path fill="#a3a871" d="M2294 1250a29 29 0 1 1 58 0 29 29 0 0 1-58 0z"/><path fill="#cf7b4b" d="M2319 1321.5a28.5 28.5.0 1 1 57 0 28.5 28.5.0 0 1-57 0z"/><path fill="#f19669" d="M2495 1321.5a28.5 28.5.0 1 1 57 0 28.5 28.5.0 0 1-57 0z"/><path fill="#eda674" d="M2432 1162c0-16 12.8-29 28.5-29s28.5 13 28.5 29-12.8 29-28.5 29-28.5-13-28.5-29z"/><path fill="#a0a66a" d="M1656 810a29 29 0 1 1 58 0 29 29 0 0 1-58 0z"/><path fill="#27ab77" d="M1764 639.5a28.5 28.5.0 1 1 57 0 28.5 28.5.0 0 1-57 0z"/><path fill="#f2986a" d="M2294 609.5c0-15.7 13-28.5 29-28.5s29 12.8 29 28.5-13 28.5-29 28.5-29-12.8-29-28.5z"/><path fill="#89ba7c" d="M2701 818.5c0-15.7 13-28.5 29-28.5s29 12.8 29 28.5-13 28.5-29 28.5-29-12.8-29-28.5z"/><path fill="#2aaa76" d="M2608 813c0-16 12.8-29 28.5-29s28.5 13 28.5 29-12.8 29-28.5 29-28.5-13-28.5-29z"/><path fill="#2aac79" d="M2787 956c0-16 12.8-29 28.5-29s28.5 13 28.5 29-12.8 29-28.5 29-28.5-13-28.5-29z"/><path fill="#8dba7e" d="M2721 945c0-16 12.8-29 28.5-29s28.5 13 28.5 29-12.8 29-28.5 29-28.5-13-28.5-29z"/><path fill="#cd7745" d="M1931 466.5c0-15.7 13-28.5 29-28.5s29 12.8 29 28.5-13 28.5-29 28.5-29-12.8-29-28.5z"/><path fill="#d17b4c" d="M1618 224.5a28.5 28.5.0 1 1 57 0 28.5 28.5.0 0 1-57 0z"/><path fill="#ce7949" d="M1579 359a29 29 0 1 1 58 0 29 29 0 0 1-58 0z"/><path fill="#f19a6f" d="M1557 428a29 29 0 1 1 58 0 29 29 0 0 1-58 0z"/><path fill="#eea979" d="M1502 392a29 29 0 1 1 58 0 29 29 0 0 1-58 0z"/><path fill="#f29669" d="M1989 279.5a28.5 28.5.0 1 1 57 0 28.5 28.5.0 0 1-57 0z"/><path fill="#f2986c" d="M1962 183c0-16 12.8-29 28.5-29s28.5 13 28.5 29-12.8 29-28.5 29-28.5-13-28.5-29z"/><path fill="#f0996c" d="M2047 128c0-16 12.8-29 28.5-29s28.5 13 28.5 29-12.8 29-28.5 29-28.5-13-28.5-29z"/><path fill="#eea676" d="M2305 340a29 29 0 1 1 58 0 29 29 0 0 1-58 0z"/><path fill="#f2986d" d="M2525 386.5c0-15.7 13-28.5 29-28.5s29 12.8 29 28.5-13 28.5-29 28.5-29-12.8-29-28.5z"/><path fill="#f09566" d="M2622 623c0-16 12.8-29 28.5-29s28.5 13 28.5 29-12.8 29-28.5 29-28.5-13-28.5-29z"/><path fill="#21a774" d="M2657 983.5c0-15.7 13-28.5 29-28.5s29 12.8 29 28.5-13 28.5-29 28.5-29-12.8-29-28.5z"/><path fill="#f19669" d="M2836 1024.5a28.5 28.5.0 1 1 57 0 28.5 28.5.0 0 1-57 0z"/><path fill="#d27c4c" d="M2858 923c0-16 12.8-29 28.5-29s28.5 13 28.5 29-12.8 29-28.5 29-28.5-13-28.5-29z"/><path fill="#eda774" d="M2883 862.5a28.5 28.5.0 1 1 57 0 28.5 28.5.0 0 1-57 0z"/><path fill="#efa876" d="M2839 1321.5a28.5 28.5.0 1 1 57 0 28.5 28.5.0 0 1-57 0z"/><path fill="#d37d4c" d="M2897 1272c0-16 12.8-29 28.5-29s28.5 13 28.5 29-12.8 29-28.5 29-28.5-13-28.5-29z"/><path fill="#c1ba72" d="M1863 1126.5a28.5 28.5.0 1 1 57 0 28.5 28.5.0 0 1-57 0z"/><path fill="#a4a96e" d="M1797 1074c0-16 12.8-29 28.5-29s28.5 13 28.5 29-12.8 29-28.5 29-28.5-13-28.5-29z"/><path fill="#29aa77" d="M2646 1676.5c0-15.7 13-28.5 29-28.5s29 12.8 29 28.5-13 28.5-29 28.5-29-12.8-29-28.5z"/><path fill="#28a976" d="M2608 1783.5a28.5 28.5.0 1 1 57 0 28.5 28.5.0 0 1-57 0z"/><path fill="#ec9568" d="M2674 1742.5a28.5 28.5.0 1 1 57 0 28.5 28.5.0 0 1-57 0z"/><path fill="#ce7846" d="M2743 1756c0-16 12.8-29 28.5-29s28.5 13 28.5 29-12.8 29-28.5 29-28.5-13-28.5-29z"/><path fill="#d27a49" d="M3122 1841.5a28.5 28.5.0 1 1 57 0 28.5 28.5.0 0 1-57 0z"/><path fill="#d68357" d="M3199 1858c0-16 12.8-29 28.5-29s28.5 13 28.5 29-12.8 29-28.5 29-28.5-13-28.5-29z"/><path fill="#ef9568" d="M3075 1904.5c0-15.7 13-28.5 29-28.5s29 12.8 29 28.5-13 28.5-29 28.5-29-12.8-29-28.5z"/><path fill="#d27d4e" d="M2897 1825c0-16 12.8-29 28.5-29s28.5 13 28.5 29-12.8 29-28.5 29-28.5-13-28.5-29z"/><path fill="#d17b4a" d="M2369 1937.5a28.5 28.5.0 1 1 57 0 28.5 28.5.0 0 1-57 0z"/><path fill="#eca373" d="M1929 1731.5a28.5 28.5.0 1 1 57 0 28.5 28.5.0 0 1-57 0z"/><path fill="#f2966a" d="M1962 1649c0-16 12.8-29 28.5-29s28.5 13 28.5 29-12.8 29-28.5 29-28.5-13-28.5-29z"/><path fill="#d27e4f" d="M1918 1497.5a28.5 28.5.0 1 1 57 0 28.5 28.5.0 0 1-57 0z"/><path fill="#d07847" d="M2663 2320c0-16 12.8-29 28.5-29s28.5 13 28.5 29-12.8 29-28.5 29-28.5-13-28.5-29z"/><path fill="#d17e52" d="M2985 2130c0-16 12.8-29 28.5-29s28.5 13 28.5 29-12.8 29-28.5 29-28.5-13-28.5-29z"/><path fill="#eeac7e" d="M2886 2237.5a28.5 28.5.0 1 1 57 0 28.5 28.5.0 0 1-57 0z"/><path fill="#edab7e" d="M2737 2306c0-16 12.8-29 28.5-29s28.5 13 28.5 29-12.8 29-28.5 29-28.5-13-28.5-29z"/><path fill="#cf7a4a" d="M1607 2226.5a28.5 28.5.0 1 1 57 0 28.5 28.5.0 0 1-57 0z"/><path fill="#eda576" d="M1764 1976c0-16 12.8-29 28.5-29s28.5 13 28.5 29-12.8 29-28.5 29-28.5-13-28.5-29z"/><path fill="#a8ac73" d="M1621 1874.5a28.5 28.5.0 1 1 57 0 28.5 28.5.0 0 1-57 0z"/><path fill="#24a976" d="M1676 1819.5a28.5 28.5.0 1 1 57 0 28.5 28.5.0 0 1-57 0z"/><path fill="#32a879" d="M1601 1805.5c0-15.7 13-28.5 29-28.5s29 12.8 29 28.5-13 28.5-29 28.5-29-12.8-29-28.5z"/><path fill="#d37b4b" d="M3122 1627c0-16 12.8-29 28.5-29s28.5 13 28.5 29-12.8 29-28.5 29-28.5-13-28.5-29z"/><path fill="#efaa7e" d="M3048 1385c0-16 12.8-29 28.5-29s28.5 13 28.5 29-12.8 29-28.5 29-28.5-13-28.5-29z"/><path fill="#d38053" d="M3326 1506c0-16 12.8-29 28.5-29s28.5 13 28.5 29-12.8 29-28.5 29-28.5-13-28.5-29z"/><path fill="#d27948" d="M2283 1030a29 29 0 1 1 58 0 29 29 0 0 1-58 0z"/><path fill="#2da977" d="M2113 824c0-16 12.8-29 28.5-29s28.5 13 28.5 29-12.8 29-28.5 29-28.5-13-28.5-29z"/><path fill="#8e9758" d="M1645 1324.5c0-15.7 13-28.5 29-28.5s29 12.8 29 28.5-13 28.5-29 28.5-29-12.8-29-28.5z"/><path fill="#25a675" d="M1868 1198c0-16 12.8-29 28.5-29s28.5 13 28.5 29-12.8 29-28.5 29-28.5-13-28.5-29z"/><path fill="#efa977" d="M2094 67.5a28.5 28.5.0 1 1 57 0 28.5 28.5.0 0 1-57 0z"/><path fill="#f19669" d="M1750 279.5a28.5 28.5.0 1 1 57 0 28.5 28.5.0 0 1-57 0z"/><path fill="#f19a6e" d="M1874 362c0-16 12.8-29 28.5-29s28.5 13 28.5 29-12.8 29-28.5 29-28.5-13-28.5-29z"/><path fill="#eca575" d="M1953 1954a29 29 0 1 1 58 0 29 29 0 0 1-58 0z"/><path fill="#cd7c4c" d="M1211 727.5a28.5 28.5.0 1 1 57 0 28.5 28.5.0 0 1-57 0z"/><path fill="#eeaa7c" d="M1203 653.5a28.5 28.5.0 1 1 57 0 28.5 28.5.0 0 1-57 0z"/><path fill="#eda376" d="M2228 153a29 29 0 1 1 58 0 29 29 0 0 1-58 0z"/><path fill="#cc7846" d="M2671 678c0-16 12.8-29 28.5-29s28.5 13 28.5 29-12.8 29-28.5 29-28.5-13-28.5-29z"/><path fill="#ce7b4c" d="M2536 788a29 29 0 1 1 58 0 29 29 0 0 1-58 0z"/><path fill="#d07d4d" d="M2490 837.5a28.5 28.5.0 1 1 57 0 28.5 28.5.0 0 1-57 0z"/><path fill="#cd7a4b" d="M1825 856.5a28.5 28.5.0 1 1 57 0 28.5 28.5.0 0 1-57 0z"/><path fill="#ed976a" d="M2443 2146c0-5.5 4.7-10 10.5-10s10.5 4.5 10.5 10-4.7 10-10.5 10-10.5-4.5-10.5-10z"/><path fill="#f0af87" d="M2443 2193.5a10.5 10.5.0 1 1 21 0 10.5 10.5.0 0 1-21 0z"/><path fill="#ef9467" d="M2846 2183c0-5.5 4.7-10 10.5-10s10.5 4.5 10.5 10-4.7 10-10.5 10-10.5-4.5-10.5-10z"/><path fill="#e9a57a" d="M2949 1866a10 10 0 1 1 20 0 10 10 0 0 1-20 0z"/><path fill="#eda778" d="M2988 1847.5c0-5.8 4.5-10.5 10-10.5s10 4.7 10 10.5-4.5 10.5-10 10.5-10-4.7-10-10.5z"/><path fill="#e9a77c" d="M3127 1682.5c0-5.8 4.5-10.5 10-10.5s10 4.7 10 10.5-4.5 10.5-10 10.5-10-4.7-10-10.5z"/><path fill="#d38053" d="M3279 1643.5c0-5.8 4.5-10.5 10-10.5s10 4.7 10 10.5-4.5 10.5-10 10.5-10-4.7-10-10.5z"/><path fill="#f4ac7b" d="M2914 1564.5a10.5 10.5.0 1 1 21 0 10.5 10.5.0 0 1-21 0z"/><path fill="#8cb97e" d="M2708 1798a10 10 0 1 1 20 0 10 10 0 0 1-20 0z"/><path fill="#abb277" d="M2752 1433.5a10.5 10.5.0 1 1 21 0 10.5 10.5.0 0 1-21 0z"/><path fill="#a8ae79" d="M2846 1465.5a10.5 10.5.0 1 1 21 0 10.5 10.5.0 0 1-21 0z"/><path fill="#eca175" d="M2923 1323.5c0-5.8 4.5-10.5 10-10.5s10 4.7 10 10.5-4.5 10.5-10 10.5-10-4.7-10-10.5z"/><path fill="#eeaa7d" d="M2980 1248c0-5.5 4.7-10 10.5-10s10.5 4.5 10.5 10-4.7 10-10.5 10-10.5-4.5-10.5-10z"/><path fill="#d17e52" d="M3263 674a10 10 0 1 1 20 0 10 10 0 0 1-20 0z"/><path fill="#ecab7f" d="M3043 410a10 10 0 1 1 20 0 10 10 0 0 1-20 0z"/><path fill="#eca676" d="M2616 208a10 10 0 1 1 20 0 10 10 0 0 1-20 0z"/><path fill="#eea778" d="M2569 218.5c0-5.8 4.5-10.5 10-10.5s10 4.7 10 10.5-4.5 10.5-10 10.5-10-4.7-10-10.5z"/><path fill="#f0aa7a" d="M2508 154.5a10.5 10.5.0 1 1 21 0 10.5 10.5.0 0 1-21 0z"/><path fill="#eda676" d="M2239 203a10 10 0 1 1 20 0 10 10 0 0 1-20 0z"/><path fill="#eda775" d="M2338 281.5a10.5 10.5.0 1 1 21 0 10.5 10.5.0 0 1-21 0z"/><path fill="#ef9f6e" d="M2291 284a10 10 0 1 1 20 0 10 10 0 0 1-20 0z"/><path fill="#efa97d" d="M2267 310.5a10.5 10.5.0 1 1 21 0 10.5 10.5.0 0 1-21 0z"/><path fill="#d07e52" d="M2223 328.5a10.5 10.5.0 1 1 21 0 10.5 10.5.0 0 1-21 0z"/><path fill="#eca779" d="M2679 459.5c0-5.8 4.5-10.5 10-10.5s10 4.7 10 10.5-4.5 10.5-10 10.5-10-4.7-10-10.5z"/><path fill="#f1ac7d" d="M2879 554.5a10.5 10.5.0 1 1 21 0 10.5 10.5.0 0 1-21 0z"/><path fill="#efa77a" d="M3071 763.5a10.5 10.5.0 1 1 21 0 10.5 10.5.0 0 1-21 0z"/><path fill="#eea77a" d="M3014 758a10 10 0 1 1 20 0 10 10 0 0 1-20 0z"/><path fill="#eba67b" d="M2867 973c0-5.5 4.7-10 10.5-10s10.5 4.5 10.5 10-4.7 10-10.5 10-10.5-4.5-10.5-10z"/><path fill="#f1aa7b" d="M2949 1132.5c0-5.8 4.5-10.5 10-10.5s10 4.7 10 10.5-4.5 10.5-10 10.5-10-4.7-10-10.5z"/><path fill="#f0ac7b" d="M2906 1125c0-5.5 4.7-10 10.5-10s10.5 4.5 10.5 10-4.7 10-10.5 10-10.5-4.5-10.5-10z"/><path fill="#eea977" d="M2882 1167c0-5.5 4.7-10 10.5-10s10.5 4.5 10.5 10-4.7 10-10.5 10-10.5-4.5-10.5-10z"/><path fill="#ec9a6c" d="M2804 1161.5a10.5 10.5.0 1 1 21 0 10.5 10.5.0 0 1-21 0z"/><path fill="#eba774" d="M2613 1261c0-5.5 4.7-10 10.5-10s10.5 4.5 10.5 10-4.7 10-10.5 10-10.5-4.5-10.5-10z"/><path fill="#dca083" d="M1348 1790c0-5.5 4.7-10 10.5-10s10.5 4.5 10.5 10-4.7 10-10.5 10-10.5-4.5-10.5-10z"/><path fill="#eba77c" d="M1579 2220.5c0-5.8 4.5-10.5 10-10.5s10 4.7 10 10.5-4.5 10.5-10 10.5-10-4.7-10-10.5z"/><path fill="#e9a87a" d="M1401 2167a10 10 0 1 1 20 0 10 10 0 0 1-20 0z"/><path fill="#e9aa80" d="M1181 763.5c0-5.8 4.5-10.5 10-10.5s10 4.7 10 10.5-4.5 10.5-10 10.5-10-4.7-10-10.5z"/><path fill="#e9ad81" d="M1156 643.5a10.5 10.5.0 1 1 21 0 10.5 10.5.0 0 1-21 0z"/><path fill="#eca979" d="M1340 1536c0-5.5 4.7-10 10.5-10s10.5 4.5 10.5 10-4.7 10-10.5 10-10.5-4.5-10.5-10z"/><path fill="#eaaa7d" d="M1128 1507c0-5.5 4.7-10 10.5-10s10.5 4.5 10.5 10-4.7 10-10.5 10-10.5-4.5-10.5-10z"/><path fill="#e9a777" d="M1646 1130c0-5.5 4.7-10 10.5-10s10.5 4.5 10.5 10-4.7 10-10.5 10-10.5-4.5-10.5-10z"/><path fill="#e8a77a" d="M1238 1208.5a10.5 10.5.0 1 1 21 0 10.5 10.5.0 0 1-21 0z"/><path fill="#d17c4b" d="M1151 1158c0-5.5 4.7-10 10.5-10s10.5 4.5 10.5 10-4.7 10-10.5 10-10.5-4.5-10.5-10z"/><path fill="#ee9f73" d="M1112 1266c0-5.5 4.7-10 10.5-10s10.5 4.5 10.5 10-4.7 10-10.5 10-10.5-4.5-10.5-10z"/><path fill="#a4ad76" d="M1681 1512.5c0-5.8 4.5-10.5 10-10.5s10 4.7 10 10.5-4.5 10.5-10 10.5-10-4.7-10-10.5z"/><path fill="#cd794b" d="M1809 1627.5a10.5 10.5.0 1 1 21 0 10.5 10.5.0 0 1-21 0z"/><path fill="#d79e81" d="M1874 1695.5a10.5 10.5.0 1 1 21 0 10.5 10.5.0 0 1-21 0z"/><path fill="#d07d4e" d="M1833 2012.5c0-5.8 4.5-10.5 10-10.5s10 4.7 10 10.5-4.5 10.5-10 10.5-10-4.7-10-10.5z"/><path fill="#d49b7c" d="M2186 1674.5a10.5 10.5.0 1 1 21 0 10.5 10.5.0 0 1-21 0z"/><path fill="#d59a7a" d="M2037 1674.5c0-5.8 4.5-10.5 10-10.5s10 4.7 10 10.5-4.5 10.5-10 10.5-10-4.7-10-10.5z"/><path fill="#efab79" d="M1951 1392a10 10 0 1 1 20 0 10 10 0 0 1-20 0z"/><path fill="#99b67d" d="M1762 1423.5a10.5 10.5.0 1 1 21 0 10.5 10.5.0 0 1-21 0z"/><path fill="#a1a870" d="M1959 1036a10 10 0 1 1 20 0 10 10 0 0 1-20 0z"/><path fill="#ed976c" d="M1730 2170c0-5.5 4.7-10 10.5-10s10.5 4.5 10.5 10-4.7 10-10.5 10-10.5-4.5-10.5-10z"/><path fill="#ee9469" d="M1657 1936.5a10.5 10.5.0 1 1 21 0 10.5 10.5.0 0 1-21 0z"/><path fill="#eea475" d="M2087 2224.5c0-5.8 4.5-10.5 10-10.5s10 4.7 10 10.5-4.5 10.5-10 10.5-10-4.7-10-10.5z"/><path fill="#eaa575" d="M1872 2240.5a10.5 10.5.0 1 1 21 0 10.5 10.5.0 0 1-21 0z"/><path fill="#eca97e" d="M3153 1061c0-5.5 4.7-10 10.5-10s10.5 4.5 10.5 10-4.7 10-10.5 10-10.5-4.5-10.5-10z"/><path fill="#ee9268" d="M1939 2326c0-5.5 4.7-10 10.5-10s10.5 4.5 10.5 10-4.7 10-10.5 10-10.5-4.5-10.5-10z"/><path fill="#f2aa7a" d="M2160 2361a10 10 0 1 1 20 0 10 10 0 0 1-20 0z"/><path fill="#8db97c" d="M2427 1892.5a10.5 10.5.0 1 1 21 0 10.5 10.5.0 0 1-21 0z"/><path fill="#ed9a6c" d="M2372 1624.5a10.5 10.5.0 1 1 21 0 10.5 10.5.0 0 1-21 0z"/><path fill="#e8a97a" d="M2560 1366c0-5.5 4.7-10 10.5-10s10.5 4.5 10.5 10-4.7 10-10.5 10-10.5-4.5-10.5-10z"/><path fill="#c2bb78" d="M2441 1109c0-5.5 4.7-10 10.5-10s10.5 4.5 10.5 10-4.7 10-10.5 10-10.5-4.5-10.5-10z"/><path fill="#da9a78" d="M2176 1171c0-5.5 4.7-10 10.5-10s10.5 4.5 10.5 10-4.7 10-10.5 10-10.5-4.5-10.5-10z"/><path fill="#eca97e" d="M3128 1024.5c0-5.8 4.5-10.5 10-10.5s10 4.7 10 10.5-4.5 10.5-10 10.5-10-4.7-10-10.5z"/><path fill="#e6ac7f" d="M2526 881.5a10.5 10.5.0 1 1 21 0 10.5 10.5.0 0 1-21 0z"/><path fill="#21a675" d="M2630 951c0-5.5 4.7-10 10.5-10s10.5 4.5 10.5 10-4.7 10-10.5 10-10.5-4.5-10.5-10z"/><path fill="#eba776" d="M1698 968c0-5.5 4.7-10 10.5-10s10.5 4.5 10.5 10-4.7 10-10.5 10-10.5-4.5-10.5-10z"/><path fill="#d79b7b" d="M1575 992a10 10 0 1 1 20 0 10 10 0 0 1-20 0z"/><path fill="#40a778" d="M1530 988.5a10.5 10.5.0 1 1 21 0 10.5 10.5.0 0 1-21 0z"/><path fill="#86b175" d="M1808 686.5a10.5 10.5.0 1 1 21 0 10.5 10.5.0 0 1-21 0z"/><path fill="#d17c4c" d="M1661 510a10 10 0 1 1 20 0 10 10 0 0 1-20 0z"/><path fill="#e5a470" d="M2038 609.5c0-5.8 4.5-10.5 10-10.5s10 4.7 10 10.5-4.5 10.5-10 10.5-10-4.7-10-10.5z"/><path fill="#8c9768" d="M1950 623.5c0-5.8 4.5-10.5 10-10.5s10 4.7 10 10.5-4.5 10.5-10 10.5-10-4.7-10-10.5z"/><path fill="#e4a97a" d="M2297 1362.5c0-5.8 4.5-10.5 10-10.5s10 4.7 10 10.5-4.5 10.5-10 10.5-10-4.7-10-10.5z"/><path fill="#ce794a" d="M2131 124.5c0-5.8 4.5-10.5 10-10.5s10 4.7 10 10.5-4.5 10.5-10 10.5-10-4.7-10-10.5z"/><path fill="#eba374" d="M2118 247.5c0-5.8 4.5-10.5 10-10.5s10 4.7 10 10.5-4.5 10.5-10 10.5-10-4.7-10-10.5z"/><path fill="#e99e73" d="M1616 491.5c0-5.8 4.5-10.5 10-10.5s10 4.7 10 10.5-4.5 10.5-10 10.5-10-4.7-10-10.5z"/><path fill="#e79d74" d="M1770 471c0-5.5 4.7-10 10.5-10s10.5 4.5 10.5 10-4.7 10-10.5 10-10.5-4.5-10.5-10z"/><path fill="#e7a77b" d="M1895 419a10 10 0 1 1 20 0 10 10 0 0 1-20 0z"/><path fill="#ea9f75" d="M2122 504.5c0-5.8 4.5-10.5 10-10.5s10 4.7 10 10.5-4.5 10.5-10 10.5-10-4.7-10-10.5z"/><path fill="#f0a676" d="M1162 1194.5a10.5 10.5.0 1 1 21 0 10.5 10.5.0 0 1-21 0z"/><path fill="#d89a7a" d="M1393 1872.5c0-5.8 4.5-10.5 10-10.5s10 4.7 10 10.5-4.5 10.5-10 10.5-10-4.7-10-10.5z"/><path fill="#ec9a70" d="M1049 1424.5a10.5 10.5.0 1 1 21 0 10.5 10.5.0 0 1-21 0z"/><path fill="#ee986d" d="M1937 1991a10 10 0 1 1 20 0 10 10 0 0 1-20 0z"/><path fill="#eaa77a" d="M2026 1925.5a10.5 10.5.0 1 1 21 0 10.5 10.5.0 0 1-21 0z"/><path fill="#ea9567" d="M1719 1174.5c0-5.8 4.5-10.5 10-10.5s10 4.7 10 10.5-4.5 10.5-10 10.5-10-4.7-10-10.5z"/><path fill="#ee9d72" d="M1787 858.5a10.5 10.5.0 1 1 21 0 10.5 10.5.0 0 1-21 0z"/><path fill="#eba679" d="M1736 329a10 10 0 1 1 20 0 10 10 0 0 1-20 0z"/><path fill="#cf7e4f" d="M2471 679.5a10.5 10.5.0 1 1 21 0 10.5 10.5.0 0 1-21 0z"/><path fill="#eca97c" d="M1921 301.5a10.5 10.5.0 1 1 21 0 10.5 10.5.0 0 1-21 0z"/><path fill="#efaa7d" d="M3281 1359.5a10.5 10.5.0 1 1 21 0 10.5 10.5.0 0 1-21 0z"/><path fill="#eba779" d="M1609 1919.5a10.5 10.5.0 1 1 21 0 10.5 10.5.0 0 1-21 0z"/><path fill="#ce7b4c" d="M1784 2170.5a10.5 10.5.0 1 1 21 0 10.5 10.5.0 0 1-21 0z"/><path fill="#c77849" d="M23e2 2270c0-5.5 4.7-10 10.5-10s10.5 4.5 10.5 10-4.7 10-10.5 10-10.5-4.5-10.5-10z"/><path fill="#e9a272" d="M2352 2259.5c0-5.8 4.5-10.5 10-10.5s10 4.7 10 10.5-4.5 10.5-10 10.5-10-4.7-10-10.5z"/><path fill="#d27946" d="M2331 1923c0-5.5 4.7-10 10.5-10s10.5 4.5 10.5 10-4.7 10-10.5 10-10.5-4.5-10.5-10z"/><path fill="#eea675" d="M2458 1929.5a10.5 10.5.0 1 1 21 0 10.5 10.5.0 0 1-21 0z"/><path fill="#d07d50" d="M2757 2094.5a10.5 10.5.0 1 1 21 0 10.5 10.5.0 0 1-21 0z"/><path fill="#8ab77b" d="M2682 1623.5c0-5.8 4.5-10.5 10-10.5s10 4.7 10 10.5-4.5 10.5-10 10.5-10-4.7-10-10.5z"/><path fill="#d28358" d="M1923 1681.5c0-5.8 4.5-10.5 10-10.5s10 4.7 10 10.5-4.5 10.5-10 10.5-10-4.7-10-10.5z"/><path fill="#f19567" d="M2143 1197a10 10 0 1 1 20 0 10 10 0 0 1-20 0z"/><path fill="#beb774" d="M2284 1197a10 10 0 1 1 20 0 10 10 0 0 1-20 0z"/><path fill="#8cbb80" d="M2620 1716c0-5.5 4.7-10 10.5-10s10.5 4.5 10.5 10-4.7 10-10.5 10-10.5-4.5-10.5-10z"/><path fill="#eea978" d="M2208 2368c0-5.5 4.7-10 10.5-10s10.5 4.5 10.5 10-4.7 10-10.5 10-10.5-4.5-10.5-10z"/><path fill="#cf7f56" d="M1974 2010.5a10.5 10.5.0 1 1 21 0 10.5 10.5.0 0 1-21 0z"/><path fill="#899254" d="M2411 1426a10 10 0 1 1 20 0 10 10 0 0 1-20 0z"/><path fill="#eb9468" d="M2339 1061.5c0-5.8 4.5-10.5 10-10.5s10 4.7 10 10.5-4.5 10.5-10 10.5-10-4.7-10-10.5z"/><path fill="#d49775" d="M2246 821a10 10 0 1 1 20 0 10 10 0 0 1-20 0z"/><path fill="#97a770" d="M1823 731.5a10.5 10.5.0 1 1 21 0 10.5 10.5.0 0 1-21 0z"/><path fill="#eb976b" d="M1359 724.5c0-5.8 4.5-10.5 10-10.5s10 4.7 10 10.5-4.5 10.5-10 10.5-10-4.7-10-10.5z"/><path fill="#91bc86" d="M2490 982.5c0-5.8 4.5-10.5 10-10.5s10 4.7 10 10.5-4.5 10.5-10 10.5-10-4.7-10-10.5z"/><path fill="#2fa878" d="M2631 1116.5c0-5.8 4.5-10.5 10-10.5s10 4.7 10 10.5-4.5 10.5-10 10.5-10-4.7-10-10.5z"/><path fill="#949a64" d="M3019 1402c0-5.5 4.7-10 10.5-10s10.5 4.5 10.5 10-4.7 10-10.5 10-10.5-4.5-10.5-10z"/><path fill="#ec976b" d="M2283 470.5a10.5 10.5.0 1 1 21 0 10.5 10.5.0 0 1-21 0z"/><path fill="#cd7647" d="M2328 405c0-5.5 4.7-10 10.5-10s10.5 4.5 10.5 10-4.7 10-10.5 10-10.5-4.5-10.5-10z"/><path fill="#cb784d" d="M2390 343.5c0-5.8 4.5-10.5 10-10.5s10 4.7 10 10.5-4.5 10.5-10 10.5-10-4.7-10-10.5z"/><path fill="#d17a4b" d="M2414 443a10 10 0 1 1 20 0 10 10 0 0 1-20 0z"/><path fill="#ce7c4e" d="M1802 233.5a10.5 10.5.0 1 1 21 0 10.5 10.5.0 0 1-21 0z"/><path fill="#ce7b49" d="M1409 758c0-12.1 10-22 22.5-22 12.4.0 22.5 9.9 22.5 22s-10 22-22.5 22a22.3 22.3.0 0 1-22.5-22z"/><path fill="#c0bc77" d="M1482 734a22 22 0 1 1 44 0 22 22 0 0 1-44 0z"/><path fill="#19ac76" d="M1537 747.5c0-12.4 9.8-22.5 22-22.5s22 10 22 22.5c0 12.4-9.8 22.5-22 22.5s-22-10-22-22.5z"/><path fill="#8cb87c" d="M1585 799.5c0-12.4 9.8-22.5 22-22.5s22 10 22 22.5c0 12.4-9.8 22.5-22 22.5s-22-10-22-22.5z"/><path fill="#ba765b" d="M1598 888.5a22.5 22.5.0 1 1 45 0 22.5 22.5.0 0 1-45 0z"/><path fill="#bb795e" d="M1475 1095a22 22 0 1 1 44 0 22 22 0 0 1-44 0z"/><path fill="#df9d7e" d="M1523 1119c0-12.2 10-22 22.5-22 12.4.0 22.5 9.8 22.5 22s-10 22-22.5 22a22.3 22.3.0 0 1-22.5-22z"/><path fill="#ebaa7f" d="M1519 1222c0-12.2 10-22 22.5-22 12.4.0 22.5 9.8 22.5 22s-10 22-22.5 22a22.3 22.3.0 0 1-22.5-22z"/><path fill="#f0986c" d="M1464 1242.5a22.5 22.5.0 1 1 45 0 22.5 22.5.0 0 1-45 0z"/><path fill="#d67f4e" d="M1444 1304.5c0-12.4 9.8-22.5 22-22.5s22 10 22 22.5c0 12.4-9.8 22.5-22 22.5s-22-10-22-22.5z"/><path fill="#d17c4b" d="M1619 1235.5a22.5 22.5.0 1 1 45 0 22.5 22.5.0 0 1-45 0z"/><path fill="#eaaa7b" d="M1657 1180.5a22.5 22.5.0 1 1 45 0 22.5 22.5.0 0 1-45 0z"/><path fill="#b8785d" d="M1678 1015.5c0-12.4 9.8-22.5 22-22.5s22 10 22 22.5c0 12.4-9.8 22.5-22 22.5s-22-10-22-22.5z"/><path fill="#ed986a" d="M1788 905.5c0-12.4 9.8-22.5 22-22.5s22 10 22 22.5c0 12.4-9.8 22.5-22 22.5s-22-10-22-22.5z"/><path fill="#a3ab74" d="M1966 802.5a22.5 22.5.0 1 1 45 0 22.5 22.5.0 0 1-45 0z"/><path fill="#eba779" d="M1141 936.5a22.5 22.5.0 1 1 45 0 22.5 22.5.0 0 1-45 0z"/><path fill="#f0996d" d="M1121 1043.5c0-12.4 9.8-22.5 22-22.5s22 10 22 22.5c0 12.4-9.8 22.5-22 22.5s-22-10-22-22.5z"/><path fill="#eea77a" d="M1107 1115.5a22.5 22.5.0 1 1 45 0 22.5 22.5.0 0 1-45 0z"/><path fill="#d17c4b" d="M1189 1170.5a22.5 22.5.0 1 1 45 0 22.5 22.5.0 0 1-45 0z"/><path fill="#ed9d71" d="M1018 1146.5c0-12.4 9.8-22.5 22-22.5s22 10 22 22.5c0 12.4-9.8 22.5-22 22.5s-22-10-22-22.5z"/><path fill="#cf8055" d="M1004 998.5c0-12.4 9.9-22.5 22-22.5 12.2.0 22 10 22 22.5.0 12.4-9.8 22.5-22 22.5-12.1.0-22-10-22-22.5z"/><path fill="#ed976d" d="M1035 912.5c0-12.4 9.8-22.5 22-22.5s22 10 22 22.5c0 12.4-9.8 22.5-22 22.5s-22-10-22-22.5z"/><path fill="#d27d4d" d="M1282 950.5a22.5 22.5.0 1 1 45 0 22.5 22.5.0 0 1-45 0z"/><path fill="#ce7a49" d="M1361 1022.5a22.5 22.5.0 1 1 45 0 22.5 22.5.0 0 1-45 0z"/><path fill="#ce7c4c" d="M1365 1074.5c0-12.4 9.8-22.5 22-22.5s22 10 22 22.5c0 12.4-9.8 22.5-22 22.5s-22-10-22-22.5z"/><path fill="#f0946a" d="M1409 1115.5a22.5 22.5.0 1 1 45 0 22.5 22.5.0 0 1-45 0z"/><path fill="#d57d4d" d="M1396 1170.5c0-12.4 9.8-22.5 22-22.5s22 10 22 22.5c0 12.4-9.8 22.5-22 22.5s-22-10-22-22.5z"/><path fill="#eda676" d="M1327 1249.5a22.5 22.5.0 1 1 45 0 22.5 22.5.0 0 1-45 0z"/><path fill="#d17c4c" d="M1286 1311.5c0-12.4 9.8-22.5 22-22.5s22 10 22 22.5c0 12.4-9.8 22.5-22 22.5s-22-10-22-22.5z"/><path fill="#ebac80" d="M983 1414.5a22.5 22.5.0 1 1 45 0 22.5 22.5.0 0 1-45 0z"/><path fill="#d27c4c" d="M1372 1407.5c0-12.4 9.8-22.5 22-22.5s22 10 22 22.5c0 12.4-9.8 22.5-22 22.5s-22-10-22-22.5z"/><path fill="#db9f80" d="M1516 1504c0-12.2 10-22 22.5-22 12.4.0 22.5 9.8 22.5 22s-10 22-22.5 22a22.3 22.3.0 0 1-22.5-22z"/><path fill="#91975e" d="M1588 1400.5a22.5 22.5.0 1 1 45 0 22.5 22.5.0 0 1-45 0z"/><path fill="#8ebb7e" d="M1781 1263.5c0-12.4 9.8-22.5 22-22.5s22 10 22 22.5c0 12.4-9.8 22.5-22 22.5s-22-10-22-22.5z"/><path fill="#bb765b" d="M1853 1263.5a22.5 22.5.0 1 1 45 0 22.5 22.5.0 0 1-45 0z"/><path fill="#dd9b7a" d="M1839 1325.5a22.5 22.5.0 1 1 45 0 22.5 22.5.0 0 1-45 0z"/><path fill="#ef9160" d="M1904 1342.5a22.5 22.5.0 1 1 45 0 22.5 22.5.0 0 1-45 0z"/><path fill="#eca775" d="M2066 1335.5a22.5 22.5.0 1 1 45 0 22.5 22.5.0 0 1-45 0z"/><path fill="#cc7b4c" d="M2183 1208.5a22.5 22.5.0 1 1 45 0 22.5 22.5.0 0 1-45 0z"/><path fill="#a6ab72" d="M2176 1266.5a22.5 22.5.0 1 1 45 0 22.5 22.5.0 0 1-45 0z"/><path fill="#eda078" d="M1021 1583c0-12.2 10-22 22.5-22 12.4.0 22.5 9.8 22.5 22s-10 22-22.5 22a22.3 22.3.0 0 1-22.5-22z"/><path fill="#d2855e" d="M1038 1641.5a22.5 22.5.0 1 1 45 0 22.5 22.5.0 0 1-45 0z"/><path fill="#d27f50" d="M1172 1720.5a22.5 22.5.0 1 1 45 0 22.5 22.5.0 0 1-45 0z"/><path fill="#d2845a" d="M1272 1686c0-12.2 10-22 22.5-22 12.4.0 22.5 9.8 22.5 22s-10 22-22.5 22a22.3 22.3.0 0 1-22.5-22z"/><path fill="#be7d63" d="M1437 1734.5a22.5 22.5.0 1 1 45 0 22.5 22.5.0 0 1-45 0z"/><path fill="#91ba81" d="M1468 1792.5a22.5 22.5.0 1 1 45 0 22.5 22.5.0 0 1-45 0z"/><path fill="#eaad82" d="M1155 1892.5a22.5 22.5.0 1 1 45 0 22.5 22.5.0 0 1-45 0z"/><path fill="#ebad80" d="M1062 1744.5a22.5 22.5.0 1 1 45 0 22.5 22.5.0 0 1-45 0z"/><path fill="#e9a677" d="M1399 1988.5a22.5 22.5.0 1 1 45 0 22.5 22.5.0 0 1-45 0z"/><path fill="#eba675" d="M1729 1768.5a22.5 22.5.0 1 1 45 0 22.5 22.5.0 0 1-45 0z"/><path fill="#db9c7d" d="M1784 1782.5a22.5 22.5.0 1 1 45 0 22.5 22.5.0 0 1-45 0z"/><path fill="#b4785f" d="M1743 1840.5a22.5 22.5.0 1 1 45 0 22.5 22.5.0 0 1-45 0z"/><path fill="#d27e50" d="M1784 1909.5a22.5 22.5.0 1 1 45 0 22.5 22.5.0 0 1-45 0z"/><path fill="#d37c4c" d="M2118 1806.5c0-12.4 9.8-22.5 22-22.5s22 10 22 22.5c0 12.4-9.8 22.5-22 22.5s-22-10-22-22.5z"/><path fill="#d89c7c" d="M2083 1758.5a22.5 22.5.0 1 1 45 0 22.5 22.5.0 0 1-45 0z"/><path fill="#ef9364" d="M2049 1803a22 22 0 1 1 44 0 22 22 0 0 1-44 0z"/><path fill="#d37b48" d="M2255 1823.5a22.5 22.5.0 1 1 45 0 22.5 22.5.0 0 1-45 0z"/><path fill="#8d9357" d="M2303 1535c0-12.2 10-22 22.5-22 12.4.0 22.5 9.8 22.5 22s-10 22-22.5 22a22.3 22.3.0 0 1-22.5-22z"/><path fill="#ef9567" d="M2348 1579.5a22.5 22.5.0 1 1 45 0 22.5 22.5.0 0 1-45 0z"/><path fill="#ee9a6f" d="M2286 1466c0-12.2 10-22 22.5-22 12.4.0 22.5 9.8 22.5 22s-10 22-22.5 22a22.3 22.3.0 0 1-22.5-22z"/><path fill="#eba877" d="M2406 1363c0-12.2 10-22 22.5-22 12.4.0 22.5 9.8 22.5 22s-10 22-22.5 22a22.3 22.3.0 0 1-22.5-22z"/><path fill="#8cb97d" d="M2575 1418a22 22 0 1 1 44 0 22 22 0 0 1-44 0z"/><path fill="#ee976a" d="M2743 1576c0-12.2 10-22 22.5-22 12.4.0 22.5 9.8 22.5 22s-10 22-22.5 22a22.3 22.3.0 0 1-22.5-22z"/><path fill="#c5bb73" d="M2867 1510.5a22.5 22.5.0 1 1 45 0 22.5 22.5.0 0 1-45 0z"/><path fill="#d47f51" d="M3004 1569.5a22.5 22.5.0 1 1 45 0 22.5 22.5.0 0 1-45 0z"/><path fill="#ee986e" d="M3169 17e2c0-12.2 10-22 22.5-22 12.4.0 22.5 9.8 22.5 22s-10 22-22.5 22a22.3 22.3.0 0 1-22.5-22z"/><path fill="#d17e50" d="M2836 1858c0-12.2 10-22 22.5-22 12.4.0 22.5 9.8 22.5 22s-10 22-22.5 22a22.3 22.3.0 0 1-22.5-22z"/><path fill="#eda576" d="M2791 1913c0-12.2 10-22 22.5-22 12.4.0 22.5 9.8 22.5 22s-10 22-22.5 22a22.3 22.3.0 0 1-22.5-22z"/><path fill="#eba274" d="M2643 2050.5a22.5 22.5.0 1 1 45 0 22.5 22.5.0 0 1-45 0z"/><path fill="#e9ab7f" d="M1815 2387.5a22.5 22.5.0 1 1 45 0 22.5 22.5.0 0 1-45 0z"/><path fill="#eea77a" d="M2269 2360a22 22 0 1 1 44 0 22 22 0 0 1-44 0z"/><path fill="#ee966b" d="M2317 2401c0-12.2 10-22 22.5-22 12.4.0 22.5 9.8 22.5 22s-10 22-22.5 22a22.3 22.3.0 0 1-22.5-22z"/><path fill="#ec9a70" d="M1420 2205.5c0-12.4 9.8-22.5 22-22.5s22 10 22 22.5c0 12.4-9.8 22.5-22 22.5s-22-10-22-22.5z"/><path fill="#f09c71" d="M1561 2170.5c0-12.4 9.8-22.5 22-22.5s22 10 22 22.5c0 12.4-9.8 22.5-22 22.5s-22-10-22-22.5z"/><path fill="#f19669" d="M2393 1999a22 22 0 1 1 44 0 22 22 0 0 1-44 0z"/><path fill="#3fab7d" d="M1702 1662a22 22 0 1 1 44 0 22 22 0 0 1-44 0z"/><path fill="#e7a576" d="M1746 1620.5a22.5 22.5.0 1 1 45 0 22.5 22.5.0 0 1-45 0z"/><path fill="#c0ba75" d="M1715 1565.5a22.5 22.5.0 1 1 45 0 22.5 22.5.0 0 1-45 0z"/><path fill="#a4ae77" d="M1691 1614c0-12.2 10-22 22.5-22 12.4.0 22.5 9.8 22.5 22s-10 22-22.5 22a22.3 22.3.0 0 1-22.5-22z"/><path fill="#8dba7e" d="M1647 1648.5c0-12.4 9.8-22.5 22-22.5s22 10 22 22.5c0 12.4-9.8 22.5-22 22.5s-22-10-22-22.5z"/><path fill="#ebaa7e" d="M1884 1541.5c0-12.4 9.8-22.5 22-22.5s22 10 22 22.5c0 12.4-9.8 22.5-22 22.5s-22-10-22-22.5z"/><path fill="#c1ba71" d="M2152 1438.5a22.5 22.5.0 1 1 45 0 22.5 22.5.0 0 1-45 0z"/><path fill="#1ba976" d="M2647 1253c0-12.2 10-22 22.5-22 12.4.0 22.5 9.8 22.5 22s-10 22-22.5 22a22.3 22.3.0 0 1-22.5-22z"/><path fill="#d37d4c" d="M2781 1311.5a22.5 22.5.0 1 1 45 0 22.5 22.5.0 0 1-45 0z"/><path fill="#aeaf7d" d="M3001 1466c0-12.2 10-22 22.5-22 12.4.0 22.5 9.8 22.5 22s-10 22-22.5 22a22.3 22.3.0 0 1-22.5-22z"/><path fill="#d57f4f" d="M3121 1359.5a22.5 22.5.0 1 1 45 0 22.5 22.5.0 0 1-45 0z"/><path fill="#f0ac7d" d="M3159 1235.5a22.5 22.5.0 1 1 45 0 22.5 22.5.0 0 1-45 0z"/><path fill="#f1aa7a" d="M3025 1242.5a22.5 22.5.0 1 1 45 0 22.5 22.5.0 0 1-45 0z"/><path fill="#89b87e" d="M2568 861c0-12.1 10-22 22.5-22 12.4.0 22.5 9.9 22.5 22s-10 22-22.5 22a22.3 22.3.0 0 1-22.5-22z"/><path fill="#eea676" d="M2324 850.5c0-12.4 9.8-22.5 22-22.5s22 10 22 22.5c0 12.4-9.8 22.5-22 22.5s-22-10-22-22.5z"/><path fill="#36a978" d="M2186 795.5a22.5 22.5.0 1 1 45 0 22.5 22.5.0 0 1-45 0z"/><path fill="#9ea56d" d="M2210 737.5a22.5 22.5.0 1 1 45 0 22.5 22.5.0 0 1-45 0z"/><path fill="#eca473" d="M2303 672c0-12.1 10-22 22.5-22 12.4.0 22.5 9.9 22.5 22s-10 22-22.5 22a22.3 22.3.0 0 1-22.5-22z"/><path fill="#cf7a4a" d="M2368 723.5a22.5 22.5.0 1 1 45 0 22.5 22.5.0 0 1-45 0z"/><path fill="#f19869" d="M2372 806c0-12.1 10-22 22.5-22 12.4.0 22.5 9.9 22.5 22s-10 22-22.5 22a22.3 22.3.0 0 1-22.5-22z"/><path fill="#f0ab7c" d="M2509 696c0-12.1 10-22 22.5-22 12.4.0 22.5 9.9 22.5 22s-10 22-22.5 22a22.3 22.3.0 0 1-22.5-22z"/><path fill="#eea87a" d="M2568 630.5a22.5 22.5.0 1 1 45 0 22.5 22.5.0 0 1-45 0z"/><path fill="#ef9a6c" d="M2912 572.5c0-12.4 9.8-22.5 22-22.5s22 10 22 22.5c0 12.4-9.8 22.5-22 22.5s-22-10-22-22.5z"/><path fill="#eca878" d="M2808 538c0-12.1 10-22 22.5-22 12.4.0 22.5 9.9 22.5 22s-10 22-22.5 22a22.3 22.3.0 0 1-22.5-22z"/><path fill="#eda777" d="M1980 520.5a22.5 22.5.0 1 1 45 0 22.5 22.5.0 0 1-45 0z"/><path fill="#ee996c" d="M1812 517.5c0-12.4 9.8-22.5 22-22.5s22 10 22 22.5c0 12.4-9.8 22.5-22 22.5s-22-10-22-22.5z"/><path fill="#e8a374" d="M1812 579.5c0-12.4 9.8-22.5 22-22.5s22 10 22 22.5c0 12.4-9.8 22.5-22 22.5s-22-10-22-22.5z"/><path fill="#9aa76d" d="M1609 644.5c0-12.4 9.8-22.5 22-22.5s22 10 22 22.5c0 12.4-9.8 22.5-22 22.5s-22-10-22-22.5z"/><path fill="#cb7a4a" d="M1550 589.5a22.5 22.5.0 1 1 45 0 22.5 22.5.0 0 1-45 0z"/><path fill="#cf7a4a" d="M1451 517.5c0-12.4 9.8-22.5 22-22.5s22 10 22 22.5c0 12.4-9.8 22.5-22 22.5s-22-10-22-22.5z"/><path fill="#ebaa7e" d="M1279 455.5c0-12.4 9.8-22.5 22-22.5s22 10 22 22.5c0 12.4-9.8 22.5-22 22.5s-22-10-22-22.5z"/><path fill="#ce7d50" d="M1176 589.5c0-12.4 9.8-22.5 22-22.5s22 10 22 22.5c0 12.4-9.8 22.5-22 22.5s-22-10-22-22.5z"/><path fill="#d17e4e" d="M1255 603.5c0-12.4 9.8-22.5 22-22.5s22 10 22 22.5c0 12.4-9.8 22.5-22 22.5s-22-10-22-22.5z"/><path fill="#ce7d51" d="M1073 747.5c0-12.4 9.8-22.5 22-22.5s22 10 22 22.5c0 12.4-9.8 22.5-22 22.5s-22-10-22-22.5z"/><path fill="#ec9d6e" d="M1282 744.5a22.5 22.5.0 1 1 45 0 22.5 22.5.0 0 1-45 0z"/><path fill="#2dac7a" d="M1698 727c0-12.1 10-22 22.5-22 12.4.0 22.5 9.9 22.5 22s-10 22-22.5 22a22.3 22.3.0 0 1-22.5-22z"/><path fill="#2faa78" d="M1753 706.5a22.5 22.5.0 1 1 45 0 22.5 22.5.0 0 1-45 0z"/><path fill="#ca7b4b" d="M1983 582.5a22.5 22.5.0 1 1 45 0 22.5 22.5.0 0 1-45 0z"/><path fill="#cd7949" d="M1863 472.5a22.5 22.5.0 1 1 45 0 22.5 22.5.0 0 1-45 0z"/><path fill="#e9a87b" d="M1801 445.5a22.5 22.5.0 1 1 45 0 22.5 22.5.0 0 1-45 0z"/><path fill="#ed986d" d="M2358 397c0-12.1 10-22 22.5-22 12.4.0 22.5 9.9 22.5 22s-10 22-22.5 22a22.3 22.3.0 0 1-22.5-22z"/><path fill="#eda574" d="M2351 991.5a22.5 22.5.0 1 1 45 0 22.5 22.5.0 0 1-45 0z"/><path fill="#c7bd78" d="M2413 1015.5a22.5 22.5.0 1 1 45 0 22.5 22.5.0 0 1-45 0z"/><path fill="#25aa78" d="M2523 1029.5a22.5 22.5.0 1 1 45 0 22.5 22.5.0 0 1-45 0z"/><path fill="#d07d4d" d="M2582 1060.5c0-12.4 9.8-22.5 22-22.5s22 10 22 22.5c0 12.4-9.8 22.5-22 22.5s-22-10-22-22.5z"/><path fill="#ea9364" d="M2602 1005.5a22.5 22.5.0 1 1 45 0 22.5 22.5.0 0 1-45 0z"/><path fill="#ce7c4d" d="M2485 1205c0-12.2 10-22 22.5-22 12.4.0 22.5 9.8 22.5 22s-10 22-22.5 22a22.3 22.3.0 0 1-22.5-22z"/><path fill="#eba573" d="M2265 854.5a22.5 22.5.0 1 1 45 0 22.5 22.5.0 0 1-45 0z"/><path fill="#cf7a4a" d="M2819 483a22 22 0 1 1 44 0 22 22 0 0 1-44 0z"/><path fill="#8cbb80" d="M2671 761.5a22.5 22.5.0 1 1 45 0 22.5 22.5.0 0 1-45 0z"/><path fill="#f3996b" d="M2943 833.5c0-12.4 9.8-22.5 22-22.5s22 10 22 22.5c0 12.4-9.8 22.5-22 22.5s-22-10-22-22.5z"/><path fill="#ce7e50" d="M2967 888.5c0-12.4 9.8-22.5 22-22.5s22 10 22 22.5c0 12.4-9.8 22.5-22 22.5s-22-10-22-22.5z"/><path fill="#f19568" d="M2922 919.5a22.5 22.5.0 1 1 45 0 22.5 22.5.0 0 1-45 0z"/><path fill="#efa778" d="M3248 916c0-12.1 10-22 22.5-22 12.4.0 22.5 9.9 22.5 22s-10 22-22.5 22a22.3 22.3.0 0 1-22.5-22z"/><path fill="#f29c70" d="M3248 971c0-12.1 10-22 22.5-22 12.4.0 22.5 9.9 22.5 22s-10 22-22.5 22a22.3 22.3.0 0 1-22.5-22z"/><path fill="#efa97e" d="M3242 1026a22 22 0 1 1 44 0 22 22 0 0 1-44 0z"/><path fill="#d67f52" d="M3221 1139.5a22.5 22.5.0 1 1 45 0 22.5 22.5.0 0 1-45 0z"/><path fill="#ebab7e" d="M3286 799.5a22.5 22.5.0 1 1 45 0 22.5 22.5.0 0 1-45 0z"/><path fill="#d27b4c" d="M3063 435c0-12.1 10-22 22.5-22 12.4.0 22.5 9.9 22.5 22s-10 22-22.5 22a22.3 22.3.0 0 1-22.5-22z"/><path fill="#37a676" d="M2049 940.5c0-12.4 9.8-22.5 22-22.5s22 10 22 22.5c0 12.4-9.8 22.5-22 22.5s-22-10-22-22.5z"/><path fill="#da9c7c" d="M1977 1095a22 22 0 1 1 44 0 22 22 0 0 1-44 0z"/><path fill="#8b9460" d="M1918 1081c0-12.2 10-22 22.5-22 12.4.0 22.5 9.8 22.5 22s-10 22-22.5 22a22.3 22.3.0 0 1-22.5-22z"/><path fill="#b9755a" d="M2159 1036.5c0-12.4 9.8-22.5 22-22.5s22 10 22 22.5c0 12.4-9.8 22.5-22 22.5s-22-10-22-22.5z"/><path fill="#f09669" d="M2276 1098.5c0-12.4 9.8-22.5 22-22.5s22 10 22 22.5c0 12.4-9.8 22.5-22 22.5s-22-10-22-22.5z"/><path fill="#f29c6f" d="M3073 1211.5a22.5 22.5.0 1 1 45 0 22.5 22.5.0 0 1-45 0z"/><path fill="#d27a49" d="M2884 1074.5a22.5 22.5.0 1 1 45 0 22.5 22.5.0 0 1-45 0z"/><path fill="#3fad7d" d="M2719 878.5a22.5 22.5.0 1 1 45 0 22.5 22.5.0 0 1-45 0z"/><path fill="#efaa7d" d="M2753 211.5a22.5 22.5.0 1 1 45 0 22.5 22.5.0 0 1-45 0z"/><path fill="#d37d4c" d="M3046 1442a22 22 0 1 1 44 0 22 22 0 0 1-44 0z"/><path fill="#efa879" d="M3176 1387c0-12.2 10-22 22.5-22 12.4.0 22.5 9.8 22.5 22s-10 22-22.5 22a22.3 22.3.0 0 1-22.5-22z"/><path fill="#ef986c" d="M3090 1583c0-12.2 10-22 22.5-22 12.4.0 22.5 9.8 22.5 22s-10 22-22.5 22a22.3 22.3.0 0 1-22.5-22z"/><path fill="#3fa879" d="M2853 802.5a22.5 22.5.0 1 1 45 0 22.5 22.5.0 0 1-45 0z"/><path fill="#8eb87f" d="M2857 692.5c0-12.4 9.8-22.5 22-22.5s22 10 22 22.5c0 12.4-9.8 22.5-22 22.5s-22-10-22-22.5z"/><path fill="#ce7b4a" d="M2956 548.5a22.5 22.5.0 1 1 45 0 22.5 22.5.0 0 1-45 0z"/><path fill="#d37947" d="M2509 438.5a22.5 22.5.0 1 1 45 0 22.5 22.5.0 0 1-45 0z"/><path fill="#ec9a6e" d="M2224 479.5a22.5 22.5.0 1 1 45 0 22.5 22.5.0 0 1-45 0z"/><path fill="#eeaa7e" d="M1595 294c0-12.1 10-22 22.5-22 12.4.0 22.5 9.9 22.5 22s-10 22-22.5 22a22.3 22.3.0 0 1-22.5-22z"/><path fill="#cc7b4a" d="M1557 235.5a22.5 22.5.0 1 1 45 0 22.5 22.5.0 0 1-45 0z"/><path fill="#eead81" d="M2499 108.5a22.5 22.5.0 1 1 45 0 22.5 22.5.0 0 1-45 0z"/><path fill="#eaa77a" d="M2038 56.5a22.5 22.5.0 1 1 45 0 22.5 22.5.0 0 1-45 0z"/><path fill="#d68157" d="M3363 1297.5a22.5 22.5.0 1 1 45 0 22.5 22.5.0 0 1-45 0z"/><path fill="#eda87e" d="M3356 1455.5a22.5 22.5.0 1 1 45 0 22.5 22.5.0 0 1-45 0z"/></g></svg>